<svg xmlns="http://www.w3.org/2000/svg" xmlns:xlink="http://www.w3.org/1999/xlink" width="2048.393799" height="933.895752" viewBox="0 0 2048.39 933.896"><path d="M84 42C84 65.196 65.196 84 42 84C18.804 84 0 65.196 0 42C0 18.804 18.804 0 42 0C65.196 0 84 18.804 84 42" fill="#FFFFFF" fill-opacity="1.000000" transform="matrix(1 0 0 1 191.061 57.136)"/><path d="M84 42C84 65.196 65.196 84 42 84C18.804 84 0 65.196 0 42C0 18.804 18.804 0 42 0C65.196 0 84 18.804 84 42" fill="none" stroke="#19191A" stroke-opacity="1.000000" stroke-width="2" stroke-dasharray="0 0" transform="matrix(1 0 0 1 191.061 57.136)"/><clipPath id="clip_1_2_0"><path d="M203.061 81.136L263.061 81.136L263.061 141.136L203.061 141.136L203.061 81.136Z"/></clipPath><g clip-path="url(#clip_1_2_0)"><path d="M37.4494 51L47.0998 51L47.0998 49.1777L43.5724 49.1777L43.5724 33.4102L41.8908 33.4102C40.9299 33.9609 39.8049 34.3652 38.2463 34.6582L38.2463 36.0469L41.3635 36.0469L41.3635 49.1777L37.4494 49.1777L37.4494 51Z" fill="#19191A" fill-opacity="1.000000" transform="matrix(1 0 0 1 191.061 57.136)"/></g><path d="M84 42C84 65.196 65.196 84 42 84C18.804 84 0 65.196 0 42C0 18.804 18.804 0 42 0C65.196 0 84 18.804 84 42" fill="#FFFFFF" fill-opacity="1.000000" transform="matrix(1 0 0 1 27.061 184.136)"/><path d="M84 42C84 65.196 65.196 84 42 84C18.804 84 0 65.196 0 42C0 18.804 18.804 0 42 0C65.196 0 84 18.804 84 42" fill="none" stroke="#19191A" stroke-opacity="1.000000" stroke-width="2" stroke-dasharray="0 0" transform="matrix(1 0 0 1 27.061 184.136)"/><clipPath id="clip_1_3_0"><path d="M39.061 208.136L99.061 208.136L99.061 268.136L39.061 268.136L39.061 208.136Z"/></clipPath><g clip-path="url(#clip_1_3_0)"><path d="M42.0138 51.3105C45.3478 51.3105 47.4865 48.2637 47.4865 42.1465C47.4865 36.0469 45.3478 33.0703 42.0138 33.0703C38.6506 33.0703 36.5178 36.0234 36.5178 42.1465C36.5178 48.2637 38.6506 51.3105 42.0138 51.3105ZM42.0138 49.5586C39.9982 49.5586 38.6506 47.3262 38.6506 42.1465C38.6506 37.0078 39.9982 34.8457 42.0138 34.8457C44.006 34.8457 45.3478 37.0078 45.3478 42.1465C45.3478 47.3262 44.006 49.5586 42.0138 49.5586Z" fill="#19191A" fill-opacity="1.000000" transform="matrix(1 0 0 1 27.061 184.136)"/></g><path d="M84 42C84 65.196 65.196 84 42 84C18.804 84 0 65.196 0 42C0 18.804 18.804 0 42 0C65.196 0 84 18.804 84 42" fill="#FFFFFF" fill-opacity="1.000000" transform="matrix(1 0 0 1 197.061 290.136)"/><path d="M84 42C84 65.196 65.196 84 42 84C18.804 84 0 65.196 0 42C0 18.804 18.804 0 42 0C65.196 0 84 18.804 84 42" fill="none" stroke="#19191A" stroke-opacity="1.000000" stroke-width="2" stroke-dasharray="0 0" transform="matrix(1 0 0 1 197.061 290.136)"/><clipPath id="clip_1_4_0"><path d="M209.061 314.136L269.061 314.136L269.061 374.136L209.061 374.136L209.061 314.136Z"/></clipPath><g clip-path="url(#clip_1_4_0)"><path d="M36.3947 51L47.4572 51L47.4572 49.1016L42.5881 49.1016C41.6974 49.1016 40.6193 49.2012 39.7053 49.2715C43.8361 45.3574 46.5959 41.7832 46.5959 38.2793C46.5959 35.1387 44.6271 33.0703 41.4865 33.0703C39.2541 33.0703 37.7424 34.1016 36.301 35.666L37.5724 36.9141C38.5334 35.7598 39.7814 34.8691 41.2228 34.8691C43.4025 34.8691 44.4572 36.334 44.4572 38.3496C44.4572 41.3789 41.9142 44.8828 36.3947 49.7051L36.3947 51Z" fill="#19191A" fill-opacity="1.000000" transform="matrix(1 0 0 1 197.061 290.136)"/></g><path d="M84 42C84 65.196 65.196 84 42 84C18.804 84 0 65.196 0 42C0 18.804 18.804 0 42 0C65.196 0 84 18.804 84 42" fill="#FFFFFF" fill-opacity="1.000000" transform="matrix(1 0 0 1 426.061 57.136)"/><path d="M84 42C84 65.196 65.196 84 42 84C18.804 84 0 65.196 0 42C0 18.804 18.804 0 42 0C65.196 0 84 18.804 84 42" fill="none" stroke="#19191A" stroke-opacity="1.000000" stroke-width="2" stroke-dasharray="0 0" transform="matrix(1 0 0 1 426.061 57.136)"/><clipPath id="clip_1_5_0"><path d="M438.061 81.136L498.061 81.136L498.061 141.136L438.061 141.136L438.061 81.136Z"/></clipPath><g clip-path="url(#clip_1_5_0)"><path d="M41.674 51.3105C44.7971 51.3105 47.3166 49.4414 47.3166 46.2949C47.3166 43.8984 45.6584 42.3105 43.5724 41.8301L43.5724 41.7363C45.4416 41.0391 46.7189 39.6211 46.7189 37.4883C46.7189 34.6582 44.5568 33.0703 41.6037 33.0703C39.5646 33.0703 38.006 33.9609 36.6818 35.1855L37.8596 36.5742C38.8439 35.5898 40.092 34.8691 41.5099 34.8223C43.3322 34.8691 44.4865 35.9531 44.4865 37.6582C44.4865 39.5508 43.2385 41.0156 39.6115 41.0156L39.6115 42.6973C43.6662 42.6973 45.0842 44.1094 45.0842 46.2246C45.0842 48.2402 43.5959 49.4883 41.5099 49.4883C39.5178 49.4883 38.1701 48.5508 37.1388 47.4727L36.0373 48.9141C37.1857 50.1621 38.9142 51.3105 41.674 51.3105Z" fill="#19191A" fill-opacity="1.000000" transform="matrix(1 0 0 1 426.061 57.136)"/></g><path d="M84 42C84 65.196 65.196 84 42 84C18.804 84 0 65.196 0 42C0 18.804 18.804 0 42 0C65.196 0 84 18.804 84 42" fill="#FFFFFF" fill-opacity="1.000000" transform="matrix(1 0 0 1 426.061 290.136)"/><path d="M84 42C84 65.196 65.196 84 42 84C18.804 84 0 65.196 0 42C0 18.804 18.804 0 42 0C65.196 0 84 18.804 84 42" fill="none" stroke="#19191A" stroke-opacity="1.000000" stroke-width="2" stroke-dasharray="0 0" transform="matrix(1 0 0 1 426.061 290.136)"/><clipPath id="clip_1_6_0"><path d="M438.061 314.136L498.061 314.136L498.061 374.136L438.061 374.136L438.061 314.136Z"/></clipPath><g clip-path="url(#clip_1_6_0)"><path d="M38.0998 44.4023L42.1076 38.4023C42.6115 37.5352 43.092 36.6738 43.5256 35.8066L43.6193 35.8066C43.5724 36.7207 43.4787 38.1387 43.4787 39L43.4787 44.4023L38.0998 44.4023ZM47.8908 44.4023L45.5646 44.4023L45.5646 33.4102L43.1388 33.4102L35.8205 44.7129L35.8205 46.1543L43.4787 46.1543L43.4787 51L45.5646 51L45.5646 46.1543L47.8908 46.1543L47.8908 44.4023Z" fill="#19191A" fill-opacity="1.000000" transform="matrix(1 0 0 1 426.061 290.136)"/></g><path d="M84 42C84 65.196 65.196 84 42 84C18.804 84 0 65.196 0 42C0 18.804 18.804 0 42 0C65.196 0 84 18.804 84 42" fill="#FFFFFF" fill-opacity="1.000000" transform="matrix(1 0 0 1 587.061 184.136)"/><path d="M84 42C84 65.196 65.196 84 42 84C18.804 84 0 65.196 0 42C0 18.804 18.804 0 42 0C65.196 0 84 18.804 84 42" fill="none" stroke="#19191A" stroke-opacity="1.000000" stroke-width="2" stroke-dasharray="0 0" transform="matrix(1 0 0 1 587.061 184.136)"/><clipPath id="clip_1_7_0"><path d="M599.061 208.136L659.061 208.136L659.061 268.136L599.061 268.136L599.061 208.136Z"/></clipPath><g clip-path="url(#clip_1_7_0)"><path d="M41.6037 51.3105C44.5803 51.3105 47.3635 49.1309 47.3635 45.2637C47.3635 41.4023 44.9904 39.6738 42.0607 39.6738C41.006 39.6738 40.2092 39.9375 39.4416 40.3652L39.8752 35.2793L46.5256 35.2793L46.5256 33.4102L37.9533 33.4102L37.4025 41.6426L38.5803 42.3574C39.5881 41.6895 40.3322 41.3262 41.5099 41.3262C43.7189 41.3262 45.1545 42.8145 45.1545 45.334C45.1545 47.9062 43.4787 49.4883 41.4103 49.4883C39.3713 49.4883 38.0998 48.5508 37.092 47.543L36.0138 48.9844C37.1857 50.1621 38.8674 51.3105 41.6037 51.3105Z" fill="#19191A" fill-opacity="1.000000" transform="matrix(1 0 0 1 587.061 184.136)"/></g><path d="M0 0L80.0079 -126.339" fill="none" stroke="#19191A" stroke-opacity="1.000000" stroke-width="2" stroke-linejoin="round" stroke-dasharray="0 0" transform="matrix(1 0 0 1 111.053 225.475)"/><path d="M0 0L86 105" fill="none" stroke="#19191A" stroke-opacity="1.000000" stroke-width="2" stroke-linejoin="round" stroke-dasharray="0 0" transform="matrix(1 0 0 1 111.061 227.136)"/><path d="M0 0L153.403 -0.054985" fill="none" stroke="#19191A" stroke-opacity="1.000000" stroke-width="2" stroke-linejoin="round" stroke-dasharray="0 0" transform="matrix(1 0 0 1 276.846 350.496)"/><path d="M0 0L77 -103.634" fill="none" stroke="#19191A" stroke-opacity="1.000000" stroke-width="2" stroke-linejoin="round" stroke-dasharray="0 0" transform="matrix(1 0 0 1 510.061 332.769)"/><path d="M0 0L77.0159 128.165" fill="none" stroke="#19191A" stroke-opacity="1.000000" stroke-width="2" stroke-linejoin="round" stroke-dasharray="0 0" transform="matrix(1 0 0 1 510.061 99.1358)"/><path d="M0 0L158.764 1.36975" fill="none" stroke="#19191A" stroke-opacity="1.000000" stroke-width="2" stroke-linejoin="round" stroke-dasharray="0 0" transform="matrix(1 0 0 1 270.862 80.8081)"/><path d="M0 0L177.037 172.325" fill="none" stroke="#19191A" stroke-opacity="1.000000" stroke-width="2" stroke-linejoin="round" stroke-dasharray="0 0" transform="matrix(1 0 0 1 260.646 130.808)"/><path d="M0 0L0 149" fill="none" stroke="#19191A" stroke-opacity="1.000000" stroke-width="2" stroke-linejoin="round" stroke-dasharray="0 0" transform="matrix(1 0 0 1 468.061 141.136)"/><path d="M2.75977 20.4023L6.76758 14.4023C7.27148 13.5352 7.75195 12.6738 8.18555 11.8066L8.2793 11.8066C8.23242 12.7207 8.13867 14.1387 8.13867 15L8.13867 20.4023L2.75977 20.4023ZM12.5508 20.4023L10.2246 20.4023L10.2246 9.41016L7.79883 9.41016L0.480469 20.7129L0.480469 22.1543L8.13867 22.1543L8.13867 27L10.2246 27L10.2246 22.1543L12.5508 22.1543L12.5508 20.4023Z" fill="#19191A" fill-opacity="1.000000" transform="matrix(0.538391 -0.842695 0.842701 0.538382 119.122 150.315)"/><path d="M6.33398 27.3105C9.45703 27.3105 11.9766 25.4414 11.9766 22.2949C11.9766 19.8984 10.3184 18.3105 8.23242 17.8301L8.23242 17.7363C10.1016 17.0391 11.3789 15.6211 11.3789 13.4883C11.3789 10.6582 9.2168 9.07031 6.26367 9.07031C4.22461 9.07031 2.66602 9.96094 1.3418 11.1855L2.51953 12.5742C3.50391 11.5898 4.75195 10.8691 6.16992 10.8223C7.99219 10.8691 9.14648 11.9531 9.14648 13.6582C9.14648 15.5508 7.89844 17.0156 4.27148 17.0156L4.27148 18.6973C8.32617 18.6973 9.74414 20.1094 9.74414 22.2246C9.74414 24.2402 8.25586 25.4883 6.16992 25.4883C4.17773 25.4883 2.83008 24.5508 1.79883 23.4727L0.697266 24.9141C1.8457 26.1621 3.57422 27.3105 6.33398 27.3105Z" fill="#19191A" fill-opacity="1.000000" transform="matrix(0.707107 0.707107 -0.707104 0.707109 367.525 175.974)"/><path d="M1.05469 27L12.1172 27L12.1172 25.1016L7.24805 25.1016C6.35742 25.1016 5.2793 25.2012 4.36523 25.2715C8.49609 21.3574 11.2559 17.7832 11.2559 14.2793C11.2559 11.1387 9.28711 9.07031 6.14648 9.07031C3.91406 9.07031 2.40234 10.1016 0.960938 11.666L2.23242 12.9141C3.19336 11.7598 4.44141 10.8691 5.88281 10.8691C8.0625 10.8691 9.11719 12.334 9.11719 14.3496C9.11719 17.3789 6.57422 20.8828 1.05469 25.7051L1.05469 27Z" fill="#19191A" fill-opacity="1.000000" transform="matrix(0.604387 0.796691 -0.796695 0.604381 181.149 247.197)"/><path d="M2.10938 27L11.7598 27L11.7598 25.1777L8.23242 25.1777L8.23242 9.41016L6.55078 9.41016C5.58984 9.96094 4.46484 10.3652 2.90625 10.6582L2.90625 12.0469L6.02344 12.0469L6.02344 25.1777L2.10938 25.1777L2.10938 27Z" fill="#19191A" fill-opacity="1.000000" transform="matrix(0.514353 0.857579 -0.857575 0.514359 583.13 137.11)"/><path d="M1.05469 27L12.1172 27L12.1172 25.1016L7.24805 25.1016C6.35742 25.1016 5.2793 25.2012 4.36523 25.2715C8.49609 21.3574 11.2559 17.7832 11.2559 14.2793C11.2559 11.1387 9.28711 9.07031 6.14648 9.07031C3.91406 9.07031 2.40234 10.1016 0.960938 11.666L2.23242 12.9141C3.19336 11.7598 4.44141 10.8691 5.88281 10.8691C8.0625 10.8691 9.11719 12.334 9.11719 14.3496C9.11719 17.3789 6.57422 20.8828 1.05469 25.7051L1.05469 27Z" fill="#19191A" fill-opacity="1.000000" transform="matrix(1 0 -5.6514e-07 1 335.373 43.6359)"/><path d="M1.05469 27L12.1172 27L12.1172 25.1016L7.24805 25.1016C6.35742 25.1016 5.2793 25.2012 4.36523 25.2715C8.49609 21.3574 11.2559 17.7832 11.2559 14.2793C11.2559 11.1387 9.28711 9.07031 6.14648 9.07031C3.91406 9.07031 2.40234 10.1016 0.960938 11.666L2.23242 12.9141C3.19336 11.7598 4.44141 10.8691 5.88281 10.8691C8.0625 10.8691 9.11719 12.334 9.11719 14.3496C9.11719 17.3789 6.57422 20.8828 1.05469 25.7051L1.05469 27Z" fill="#19191A" fill-opacity="1.000000" transform="matrix(1 0 -1.27157e-06 1 344.561 319.866)"/><path d="M2.10938 27L11.7598 27L11.7598 25.1777L8.23242 25.1777L8.23242 9.41016L6.55078 9.41016C5.58984 9.96094 4.46484 10.3652 2.90625 10.6582L2.90625 12.0469L6.02344 12.0469L6.02344 25.1777L2.10938 25.1777L2.10938 27Z" fill="#19191A" fill-opacity="1.000000" transform="matrix(0.620615 -0.784116 0.784115 0.620615 512.499 270.874)"/><path d="M2.20898 27L4.39453 27L4.39453 13.9688L2.20898 13.9688L2.20898 27ZM3.31055 11.2793C4.17773 11.2793 4.82227 10.6816 4.82227 9.86133C4.82227 8.97656 4.17773 8.44922 3.31055 8.44922C2.44922 8.44922 1.79883 8.97656 1.79883 9.86133C1.79883 10.6816 2.44922 11.2793 3.31055 11.2793ZM8.80896 27L10.9945 27L10.9945 17.543C12.3129 16.2246 13.2211 15.5508 14.5687 15.5508C16.2972 15.5508 17.0414 16.582 17.0414 19.0312L17.0414 27L19.2211 27L19.2211 18.7441C19.2211 15.4102 17.9789 13.6348 15.2426 13.6348C13.4613 13.6348 12.1195 14.6133 10.8715 15.8379L10.8011 15.8379L10.6078 13.9688L8.80896 13.9688L8.80896 27ZM29.8069 8.01562C29.1858 7.75195 28.4182 7.58203 27.6214 7.58203C25.0315 7.58203 23.8303 9.24023 23.8303 11.8828L23.8303 13.9688L22.0549 14.0859L22.0549 15.7441L23.8303 15.7441L23.8303 27L26.0159 27L26.0159 15.7441L28.7757 15.7441L28.7757 13.9688L26.0159 13.9688L26.0159 11.9062C26.0159 10.2246 26.6135 9.33398 27.8616 9.33398C28.3186 9.33398 28.846 9.45703 29.3264 9.67383L29.8069 8.01562Z" fill="#19191A" fill-opacity="1.000000" transform="matrix(1 0 0 1 53.929 141.136)"/><path d="M7.52467 27L9.71022 27L9.71022 13.9688L7.52467 13.9688L7.52467 27ZM8.62624 11.2793C9.49342 11.2793 10.138 10.6816 10.138 9.86133C10.138 8.97656 9.49342 8.44922 8.62624 8.44922C7.76491 8.44922 7.11452 8.97656 7.11452 9.86133C7.11452 10.6816 7.76491 11.2793 8.62624 11.2793ZM14.1246 27L16.3102 27L16.3102 17.543C17.6286 16.2246 18.5368 15.5508 19.8844 15.5508C21.6129 15.5508 22.3571 16.582 22.3571 19.0312L22.3571 27L24.5368 27L24.5368 18.7441C24.5368 15.4102 23.2946 13.6348 20.5582 13.6348C18.777 13.6348 17.4352 14.6133 16.1871 15.8379L16.1168 15.8379L15.9235 13.9688L14.1246 13.9688L14.1246 27ZM35.1226 8.01562C34.5015 7.75195 33.7339 7.58203 32.937 7.58203C30.3472 7.58203 29.146 9.24023 29.146 11.8828L29.146 13.9688L27.3706 14.0859L27.3706 15.7441L29.146 15.7441L29.146 27L31.3316 27L31.3316 15.7441L34.0913 15.7441L34.0913 13.9688L31.3316 13.9688L31.3316 11.9062C31.3316 10.2246 31.9292 9.33398 33.1773 9.33398C33.6343 9.33398 34.1617 9.45703 34.6421 9.67383L35.1226 8.01562Z" fill="#19191A" fill-opacity="1.000000" transform="matrix(1 0 0 1 212.214 7.63593)"/><path d="M7.52467 27L9.71022 27L9.71022 13.9688L7.52467 13.9688L7.52467 27ZM8.62624 11.2793C9.49342 11.2793 10.138 10.6816 10.138 9.86133C10.138 8.97656 9.49342 8.44922 8.62624 8.44922C7.76491 8.44922 7.11452 8.97656 7.11452 9.86133C7.11452 10.6816 7.76491 11.2793 8.62624 11.2793ZM14.1246 27L16.3102 27L16.3102 17.543C17.6286 16.2246 18.5368 15.5508 19.8844 15.5508C21.6129 15.5508 22.3571 16.582 22.3571 19.0312L22.3571 27L24.5368 27L24.5368 18.7441C24.5368 15.4102 23.2946 13.6348 20.5582 13.6348C18.777 13.6348 17.4352 14.6133 16.1871 15.8379L16.1168 15.8379L15.9235 13.9688L14.1246 13.9688L14.1246 27ZM35.1226 8.01562C34.5015 7.75195 33.7339 7.58203 32.937 7.58203C30.3472 7.58203 29.146 9.24023 29.146 11.8828L29.146 13.9688L27.3706 14.0859L27.3706 15.7441L29.146 15.7441L29.146 27L31.3316 27L31.3316 15.7441L34.0913 15.7441L34.0913 13.9688L31.3316 13.9688L31.3316 11.9062C31.3316 10.2246 31.9292 9.33398 33.1773 9.33398C33.6343 9.33398 34.1617 9.45703 34.6421 9.67383L35.1226 8.01562Z" fill="#19191A" fill-opacity="1.000000" transform="matrix(1 0 0 1 218.214 373.847)"/><path d="M7.52467 27L9.71022 27L9.71022 13.9688L7.52467 13.9688L7.52467 27ZM8.62624 11.2793C9.49342 11.2793 10.138 10.6816 10.138 9.86133C10.138 8.97656 9.49342 8.44922 8.62624 8.44922C7.76491 8.44922 7.11452 8.97656 7.11452 9.86133C7.11452 10.6816 7.76491 11.2793 8.62624 11.2793ZM14.1246 27L16.3102 27L16.3102 17.543C17.6286 16.2246 18.5368 15.5508 19.8844 15.5508C21.6129 15.5508 22.3571 16.582 22.3571 19.0312L22.3571 27L24.5368 27L24.5368 18.7441C24.5368 15.4102 23.2946 13.6348 20.5582 13.6348C18.777 13.6348 17.4352 14.6133 16.1871 15.8379L16.1168 15.8379L15.9235 13.9688L14.1246 13.9688L14.1246 27ZM35.1226 8.01562C34.5015 7.75195 33.7339 7.58203 32.937 7.58203C30.3472 7.58203 29.146 9.24023 29.146 11.8828L29.146 13.9688L27.3706 14.0859L27.3706 15.7441L29.146 15.7441L29.146 27L31.3316 27L31.3316 15.7441L34.0913 15.7441L34.0913 13.9688L31.3316 13.9688L31.3316 11.9062C31.3316 10.2246 31.9292 9.33398 33.1773 9.33398C33.6343 9.33398 34.1617 9.45703 34.6421 9.67383L35.1226 8.01562Z" fill="#19191A" fill-opacity="1.000000" transform="matrix(1 0 0 1 448.213 12.6205)"/><path d="M7.52467 27L9.71022 27L9.71022 13.9688L7.52467 13.9688L7.52467 27ZM8.62624 11.2793C9.49342 11.2793 10.138 10.6816 10.138 9.86133C10.138 8.97656 9.49342 8.44922 8.62624 8.44922C7.76491 8.44922 7.11452 8.97656 7.11452 9.86133C7.11452 10.6816 7.76491 11.2793 8.62624 11.2793ZM14.1246 27L16.3102 27L16.3102 17.543C17.6286 16.2246 18.5368 15.5508 19.8844 15.5508C21.6129 15.5508 22.3571 16.582 22.3571 19.0312L22.3571 27L24.5368 27L24.5368 18.7441C24.5368 15.4102 23.2946 13.6348 20.5582 13.6348C18.777 13.6348 17.4352 14.6133 16.1871 15.8379L16.1168 15.8379L15.9235 13.9688L14.1246 13.9688L14.1246 27ZM35.1226 8.01562C34.5015 7.75195 33.7339 7.58203 32.937 7.58203C30.3472 7.58203 29.146 9.24023 29.146 11.8828L29.146 13.9688L27.3706 14.0859L27.3706 15.7441L29.146 15.7441L29.146 27L31.3316 27L31.3316 15.7441L34.0913 15.7441L34.0913 13.9688L31.3316 13.9688L31.3316 11.9062C31.3316 10.2246 31.9292 9.33398 33.1773 9.33398C33.6343 9.33398 34.1617 9.45703 34.6421 9.67383L35.1226 8.01562Z" fill="#19191A" fill-opacity="1.000000" transform="matrix(1 0 0 1 451.457 377.977)"/><path d="M7.52467 27L9.71022 27L9.71022 13.9688L7.52467 13.9688L7.52467 27ZM8.62624 11.2793C9.49342 11.2793 10.138 10.6816 10.138 9.86133C10.138 8.97656 9.49342 8.44922 8.62624 8.44922C7.76491 8.44922 7.11452 8.97656 7.11452 9.86133C7.11452 10.6816 7.76491 11.2793 8.62624 11.2793ZM14.1246 27L16.3102 27L16.3102 17.543C17.6286 16.2246 18.5368 15.5508 19.8844 15.5508C21.6129 15.5508 22.3571 16.582 22.3571 19.0312L22.3571 27L24.5368 27L24.5368 18.7441C24.5368 15.4102 23.2946 13.6348 20.5582 13.6348C18.777 13.6348 17.4352 14.6133 16.1871 15.8379L16.1168 15.8379L15.9235 13.9688L14.1246 13.9688L14.1246 27ZM35.1226 8.01562C34.5015 7.75195 33.7339 7.58203 32.937 7.58203C30.3472 7.58203 29.146 9.24023 29.146 11.8828L29.146 13.9688L27.3706 14.0859L27.3706 15.7441L29.146 15.7441L29.146 27L31.3316 27L31.3316 15.7441L34.0913 15.7441L34.0913 13.9688L31.3316 13.9688L31.3316 11.9062C31.3316 10.2246 31.9292 9.33398 33.1773 9.33398C33.6343 9.33398 34.1617 9.45703 34.6421 9.67383L35.1226 8.01562Z" fill="#19191A" fill-opacity="1.000000" transform="matrix(1 0 0 1 612.793 140.847)"/><path d="M84 42C84 65.196 65.196 84 42 84C18.804 84 0 65.196 0 42C0 18.804 18.804 0 42 0C65.196 0 84 18.804 84 42" fill="#ADDCFF" fill-opacity="1.000000" transform="matrix(1 0 0 1 878.801 57.136)"/><path d="M84 42C84 65.196 65.196 84 42 84C18.804 84 0 65.196 0 42C0 18.804 18.804 0 42 0C65.196 0 84 18.804 84 42" fill="none" stroke="#19191A" stroke-opacity="1.000000" stroke-width="2" stroke-dasharray="0 0" transform="matrix(1 0 0 1 878.801 57.136)"/><clipPath id="clip_1_85_0"><path d="M890.801 81.136L950.801 81.136L950.801 141.136L890.801 141.136L890.801 81.136Z"/></clipPath><g clip-path="url(#clip_1_85_0)"><path d="M37.4494 51L47.0998 51L47.0998 49.1777L43.5724 49.1777L43.5724 33.4102L41.8908 33.4102C40.9299 33.9609 39.8049 34.3652 38.2463 34.6582L38.2463 36.0469L41.3635 36.0469L41.3635 49.1777L37.4494 49.1777L37.4494 51Z" fill="#19191A" fill-opacity="1.000000" transform="matrix(1 0 0 1 878.801 57.136)"/></g><path d="M84 42C84 65.196 65.196 84 42 84C18.804 84 0 65.196 0 42C0 18.804 18.804 0 42 0C65.196 0 84 18.804 84 42" fill="#D5FFEC" fill-opacity="1.000000" transform="matrix(1 0 0 1 714.801 183.095)"/><path d="M84 42C84 65.196 65.196 84 42 84C18.804 84 0 65.196 0 42C0 18.804 18.804 0 42 0C65.196 0 84 18.804 84 42" fill="none" stroke="#19191A" stroke-opacity="1.000000" stroke-width="2" stroke-dasharray="0 0" transform="matrix(1 0 0 1 714.801 183.095)"/><clipPath id="clip_1_86_0"><path d="M726.801 207.095L786.801 207.095L786.801 267.095L726.801 267.095L726.801 207.095Z"/></clipPath><g clip-path="url(#clip_1_86_0)"><path d="M42.0138 51.3105C45.3478 51.3105 47.4865 48.2637 47.4865 42.1465C47.4865 36.0469 45.3478 33.0703 42.0138 33.0703C38.6506 33.0703 36.5178 36.0234 36.5178 42.1465C36.5178 48.2637 38.6506 51.3105 42.0138 51.3105ZM42.0138 49.5586C39.9982 49.5586 38.6506 47.3262 38.6506 42.1465C38.6506 37.0078 39.9982 34.8457 42.0138 34.8457C44.006 34.8457 45.3478 37.0078 45.3478 42.1465C45.3478 47.3262 44.006 49.5586 42.0138 49.5586Z" fill="#19191A" fill-opacity="1.000000" transform="matrix(1 0 0 1 714.801 183.095)"/></g><path d="M84 42C84 65.196 65.196 84 42 84C18.804 84 0 65.196 0 42C0 18.804 18.804 0 42 0C65.196 0 84 18.804 84 42" fill="#ADDCFF" fill-opacity="1.000000" transform="matrix(1 0 0 1 884.801 290.136)"/><path d="M84 42C84 65.196 65.196 84 42 84C18.804 84 0 65.196 0 42C0 18.804 18.804 0 42 0C65.196 0 84 18.804 84 42" fill="none" stroke="#19191A" stroke-opacity="1.000000" stroke-width="2" stroke-dasharray="0 0" transform="matrix(1 0 0 1 884.801 290.136)"/><clipPath id="clip_1_87_0"><path d="M896.801 314.136L956.801 314.136L956.801 374.136L896.801 374.136L896.801 314.136Z"/></clipPath><g clip-path="url(#clip_1_87_0)"><path d="M36.3947 51L47.4572 51L47.4572 49.1016L42.5881 49.1016C41.6974 49.1016 40.6193 49.2012 39.7053 49.2715C43.8361 45.3574 46.5959 41.7832 46.5959 38.2793C46.5959 35.1387 44.6271 33.0703 41.4865 33.0703C39.2541 33.0703 37.7424 34.1016 36.301 35.666L37.5724 36.9141C38.5334 35.7598 39.7814 34.8691 41.2228 34.8691C43.4025 34.8691 44.4572 36.334 44.4572 38.3496C44.4572 41.3789 41.9142 44.8828 36.3947 49.7051L36.3947 51Z" fill="#19191A" fill-opacity="1.000000" transform="matrix(1 0 0 1 884.801 290.136)"/></g><path d="M84 42C84 65.196 65.196 84 42 84C18.804 84 0 65.196 0 42C0 18.804 18.804 0 42 0C65.196 0 84 18.804 84 42" fill="#FFFFFF" fill-opacity="1.000000" transform="matrix(1 0 0 1 1113.8 57.136)"/><path d="M84 42C84 65.196 65.196 84 42 84C18.804 84 0 65.196 0 42C0 18.804 18.804 0 42 0C65.196 0 84 18.804 84 42" fill="none" stroke="#19191A" stroke-opacity="1.000000" stroke-width="2" stroke-dasharray="0 0" transform="matrix(1 0 0 1 1113.8 57.136)"/><clipPath id="clip_1_88_0"><path d="M1125.8 81.136L1185.8 81.136L1185.8 141.136L1125.8 141.136L1125.8 81.136Z"/></clipPath><g clip-path="url(#clip_1_88_0)"><path d="M41.674 51.3105C44.7971 51.3105 47.3166 49.4414 47.3166 46.2949C47.3166 43.8984 45.6584 42.3105 43.5724 41.8301L43.5724 41.7363C45.4416 41.0391 46.7189 39.6211 46.7189 37.4883C46.7189 34.6582 44.5568 33.0703 41.6037 33.0703C39.5646 33.0703 38.006 33.9609 36.6818 35.1855L37.8596 36.5742C38.8439 35.5898 40.092 34.8691 41.5099 34.8223C43.3322 34.8691 44.4865 35.9531 44.4865 37.6582C44.4865 39.5508 43.2385 41.0156 39.6115 41.0156L39.6115 42.6973C43.6662 42.6973 45.0842 44.1094 45.0842 46.2246C45.0842 48.2402 43.5959 49.4883 41.5099 49.4883C39.5178 49.4883 38.1701 48.5508 37.1388 47.4727L36.0373 48.9141C37.1857 50.1621 38.9142 51.3105 41.674 51.3105Z" fill="#19191A" fill-opacity="1.000000" transform="matrix(1 0 0 1 1113.8 57.136)"/></g><path d="M84 42C84 65.196 65.196 84 42 84C18.804 84 0 65.196 0 42C0 18.804 18.804 0 42 0C65.196 0 84 18.804 84 42" fill="#FFFFFF" fill-opacity="1.000000" transform="matrix(1 0 0 1 1113.8 290.136)"/><path d="M84 42C84 65.196 65.196 84 42 84C18.804 84 0 65.196 0 42C0 18.804 18.804 0 42 0C65.196 0 84 18.804 84 42" fill="none" stroke="#19191A" stroke-opacity="1.000000" stroke-width="2" stroke-dasharray="0 0" transform="matrix(1 0 0 1 1113.8 290.136)"/><clipPath id="clip_1_89_0"><path d="M1125.8 314.136L1185.8 314.136L1185.8 374.136L1125.8 374.136L1125.8 314.136Z"/></clipPath><g clip-path="url(#clip_1_89_0)"><path d="M38.0998 44.4023L42.1076 38.4023C42.6115 37.5352 43.092 36.6738 43.5256 35.8066L43.6193 35.8066C43.5724 36.7207 43.4787 38.1387 43.4787 39L43.4787 44.4023L38.0998 44.4023ZM47.8908 44.4023L45.5646 44.4023L45.5646 33.4102L43.1388 33.4102L35.8205 44.7129L35.8205 46.1543L43.4787 46.1543L43.4787 51L45.5646 51L45.5646 46.1543L47.8908 46.1543L47.8908 44.4023Z" fill="#19191A" fill-opacity="1.000000" transform="matrix(1 0 0 1 1113.8 290.136)"/></g><path d="M84 42C84 65.196 65.196 84 42 84C18.804 84 0 65.196 0 42C0 18.804 18.804 0 42 0C65.196 0 84 18.804 84 42" fill="#FFFFFF" fill-opacity="1.000000" transform="matrix(1 0 0 1 1274.8 184.136)"/><path d="M84 42C84 65.196 65.196 84 42 84C18.804 84 0 65.196 0 42C0 18.804 18.804 0 42 0C65.196 0 84 18.804 84 42" fill="none" stroke="#19191A" stroke-opacity="1.000000" stroke-width="2" stroke-dasharray="0 0" transform="matrix(1 0 0 1 1274.8 184.136)"/><clipPath id="clip_1_90_0"><path d="M1286.8 208.136L1346.8 208.136L1346.8 268.136L1286.8 268.136L1286.8 208.136Z"/></clipPath><g clip-path="url(#clip_1_90_0)"><path d="M41.6037 51.3105C44.5803 51.3105 47.3635 49.1309 47.3635 45.2637C47.3635 41.4023 44.9904 39.6738 42.0607 39.6738C41.006 39.6738 40.2092 39.9375 39.4416 40.3652L39.8752 35.2793L46.5256 35.2793L46.5256 33.4102L37.9533 33.4102L37.4025 41.6426L38.5803 42.3574C39.5881 41.6895 40.3322 41.3262 41.5099 41.3262C43.7189 41.3262 45.1545 42.8145 45.1545 45.334C45.1545 47.9062 43.4787 49.4883 41.4103 49.4883C39.3713 49.4883 38.0998 48.5508 37.092 47.543L36.0138 48.9844C37.1857 50.1621 38.8674 51.3105 41.6037 51.3105Z" fill="#19191A" fill-opacity="1.000000" transform="matrix(1 0 0 1 1274.8 184.136)"/></g><path d="M0 0L80.0079 -126.339" fill="none" stroke="#19191A" stroke-opacity="1.000000" stroke-width="2" stroke-linejoin="round" stroke-dasharray="0 0" transform="matrix(1 0 0 1 798.793 225.475)"/><path d="M0 0L86 105" fill="none" stroke="#19191A" stroke-opacity="1.000000" stroke-width="2" stroke-linejoin="round" stroke-dasharray="0 0" transform="matrix(1 0 0 1 798.801 227.136)"/><path d="M0 0L153.403 -0.054985" fill="none" stroke="#19191A" stroke-opacity="1.000000" stroke-width="2" stroke-linejoin="round" stroke-dasharray="0 0" transform="matrix(1 0 0 1 964.586 350.496)"/><path d="M0 0L77 -103.634" fill="none" stroke="#19191A" stroke-opacity="1.000000" stroke-width="2" stroke-linejoin="round" stroke-dasharray="0 0" transform="matrix(1 0 0 1 1197.8 332.769)"/><path d="M0 0L77.0159 128.165" fill="none" stroke="#19191A" stroke-opacity="1.000000" stroke-width="2" stroke-linejoin="round" stroke-dasharray="0 0" transform="matrix(1 0 0 1 1197.8 99.1358)"/><path d="M0 0L158.764 1.36975" fill="none" stroke="#19191A" stroke-opacity="1.000000" stroke-width="2" stroke-linejoin="round" stroke-dasharray="0 0" transform="matrix(1 0 0 1 958.601 80.8081)"/><path d="M0 0L177.037 172.325" fill="none" stroke="#19191A" stroke-opacity="1.000000" stroke-width="2" stroke-linejoin="round" stroke-dasharray="0 0" transform="matrix(1 0 0 1 948.385 130.808)"/><path d="M0 0L0 149" fill="none" stroke="#19191A" stroke-opacity="1.000000" stroke-width="2" stroke-linejoin="round" stroke-dasharray="0 0" transform="matrix(1 0 0 1 1155.8 141.136)"/><path d="M2.75977 20.4023L6.76758 14.4023C7.27148 13.5352 7.75195 12.6738 8.18555 11.8066L8.2793 11.8066C8.23242 12.7207 8.13867 14.1387 8.13867 15L8.13867 20.4023L2.75977 20.4023ZM12.5508 20.4023L10.2246 20.4023L10.2246 9.41016L7.79883 9.41016L0.480469 20.7129L0.480469 22.1543L8.13867 22.1543L8.13867 27L10.2246 27L10.2246 22.1543L12.5508 22.1543L12.5508 20.4023Z" fill="#19191A" fill-opacity="1.000000" transform="matrix(0.538391 -0.842695 0.842697 0.538389 806.862 150.315)"/><path d="M6.33398 27.3105C9.45703 27.3105 11.9766 25.4414 11.9766 22.2949C11.9766 19.8984 10.3184 18.3105 8.23242 17.8301L8.23242 17.7363C10.1016 17.0391 11.3789 15.6211 11.3789 13.4883C11.3789 10.6582 9.2168 9.07031 6.26367 9.07031C4.22461 9.07031 2.66602 9.96094 1.3418 11.1855L2.51953 12.5742C3.50391 11.5898 4.75195 10.8691 6.16992 10.8223C7.99219 10.8691 9.14648 11.9531 9.14648 13.6582C9.14648 15.5508 7.89844 17.0156 4.27148 17.0156L4.27148 18.6973C8.32617 18.6973 9.74414 20.1094 9.74414 22.2246C9.74414 24.2402 8.25586 25.4883 6.16992 25.4883C4.17773 25.4883 2.83008 24.5508 1.79883 23.4727L0.697266 24.9141C1.8457 26.1621 3.57422 27.3105 6.33398 27.3105Z" fill="#19191A" fill-opacity="1.000000" transform="matrix(0.707107 0.707107 -0.707104 0.707109 1055.27 175.974)"/><path d="M1.05469 27L12.1172 27L12.1172 25.1016L7.24805 25.1016C6.35742 25.1016 5.2793 25.2012 4.36523 25.2715C8.49609 21.3574 11.2559 17.7832 11.2559 14.2793C11.2559 11.1387 9.28711 9.07031 6.14648 9.07031C3.91406 9.07031 2.40234 10.1016 0.960938 11.666L2.23242 12.9141C3.19336 11.7598 4.44141 10.8691 5.88281 10.8691C8.0625 10.8691 9.11719 12.334 9.11719 14.3496C9.11719 17.3789 6.57422 20.8828 1.05469 25.7051L1.05469 27Z" fill="#19191A" fill-opacity="1.000000" transform="matrix(0.604387 0.796691 -0.796689 0.604389 868.889 247.197)"/><path d="M2.10938 27L11.7598 27L11.7598 25.1777L8.23242 25.1777L8.23242 9.41016L6.55078 9.41016C5.58984 9.96094 4.46484 10.3652 2.90625 10.6582L2.90625 12.0469L6.02344 12.0469L6.02344 25.1777L2.10938 25.1777L2.10938 27Z" fill="#19191A" fill-opacity="1.000000" transform="matrix(0.514353 0.857579 -0.857566 0.514373 1270.87 137.109)"/><path d="M1.05469 27L12.1172 27L12.1172 25.1016L7.24805 25.1016C6.35742 25.1016 5.2793 25.2012 4.36523 25.2715C8.49609 21.3574 11.2559 17.7832 11.2559 14.2793C11.2559 11.1387 9.28711 9.07031 6.14648 9.07031C3.91406 9.07031 2.40234 10.1016 0.960938 11.666L2.23242 12.9141C3.19336 11.7598 4.44141 10.8691 5.88281 10.8691C8.0625 10.8691 9.11719 12.334 9.11719 14.3496C9.11719 17.3789 6.57422 20.8828 1.05469 25.7051L1.05469 27Z" fill="#19191A" fill-opacity="1.000000" transform="matrix(1 0 -5.6514e-07 1 1023.11 43.6359)"/><path d="M1.05469 27L12.1172 27L12.1172 25.1016L7.24805 25.1016C6.35742 25.1016 5.2793 25.2012 4.36523 25.2715C8.49609 21.3574 11.2559 17.7832 11.2559 14.2793C11.2559 11.1387 9.28711 9.07031 6.14648 9.07031C3.91406 9.07031 2.40234 10.1016 0.960938 11.666L2.23242 12.9141C3.19336 11.7598 4.44141 10.8691 5.88281 10.8691C8.0625 10.8691 9.11719 12.334 9.11719 14.3496C9.11719 17.3789 6.57422 20.8828 1.05469 25.7051L1.05469 27Z" fill="#19191A" fill-opacity="1.000000" transform="matrix(1 0 -1.27157e-06 1 1032.3 319.866)"/><path d="M2.10938 27L11.7598 27L11.7598 25.1777L8.23242 25.1777L8.23242 9.41016L6.55078 9.41016C5.58984 9.96094 4.46484 10.3652 2.90625 10.6582L2.90625 12.0469L6.02344 12.0469L6.02344 25.1777L2.10938 25.1777L2.10938 27Z" fill="#19191A" fill-opacity="1.000000" transform="matrix(0.620615 -0.784116 0.784116 0.620615 1200.24 270.875)"/><path d="M6.67383 27.3105C10.0078 27.3105 12.1465 24.2637 12.1465 18.1465C12.1465 12.0469 10.0078 9.07031 6.67383 9.07031C3.31055 9.07031 1.17773 12.0234 1.17773 18.1465C1.17773 24.2637 3.31055 27.3105 6.67383 27.3105ZM6.67383 25.5586C4.6582 25.5586 3.31055 23.3262 3.31055 18.1465C3.31055 13.0078 4.6582 10.8457 6.67383 10.8457C8.66602 10.8457 10.0078 13.0078 10.0078 18.1465C10.0078 23.3262 8.66602 25.5586 6.67383 25.5586Z" fill="#00C691" fill-opacity="1.000000" transform="matrix(1 0 0 1 749.088 140.208)"/><path d="M15.9474 20.4023L19.9552 14.4023C20.4591 13.5352 20.9396 12.6738 21.3732 11.8066L21.467 11.8066C21.4201 12.7207 21.3263 14.1387 21.3263 15L21.3263 20.4023L15.9474 20.4023ZM25.7384 20.4023L23.4123 20.4023L23.4123 9.41016L20.9865 9.41016L13.6681 20.7129L13.6681 22.1543L21.3263 22.1543L21.3263 27L23.4123 27L23.4123 22.1543L25.7384 22.1543L25.7384 20.4023Z" fill="#43ABFF" fill-opacity="1.000000" transform="matrix(1 0 0 1 898.912 7.63593)"/><path d="M14.2423 27L25.3048 27L25.3048 25.1016L20.4357 25.1016C19.5451 25.1016 18.467 25.2012 17.5529 25.2715C21.6838 21.3574 24.4435 17.7832 24.4435 14.2793C24.4435 11.1387 22.4748 9.07031 19.3341 9.07031C17.1017 9.07031 15.59 10.1016 14.1486 11.666L15.4201 12.9141C16.381 11.7598 17.6291 10.8691 19.0705 10.8691C21.2502 10.8691 22.3048 12.334 22.3048 14.3496C22.3048 17.3789 19.7619 20.8828 14.2423 25.7051L14.2423 27Z" fill="#43ABFF" fill-opacity="1.000000" transform="matrix(1 0 0 1 905.953 373.847)"/><path d="M7.52467 27L9.71022 27L9.71022 13.9688L7.52467 13.9688L7.52467 27ZM8.62624 11.2793C9.49342 11.2793 10.138 10.6816 10.138 9.86133C10.138 8.97656 9.49342 8.44922 8.62624 8.44922C7.76491 8.44922 7.11452 8.97656 7.11452 9.86133C7.11452 10.6816 7.76491 11.2793 8.62624 11.2793ZM14.1246 27L16.3102 27L16.3102 17.543C17.6286 16.2246 18.5368 15.5508 19.8844 15.5508C21.6129 15.5508 22.3571 16.582 22.3571 19.0312L22.3571 27L24.5368 27L24.5368 18.7441C24.5368 15.4102 23.2946 13.6348 20.5582 13.6348C18.777 13.6348 17.4352 14.6133 16.1871 15.8379L16.1168 15.8379L15.9235 13.9688L14.1246 13.9688L14.1246 27ZM35.1226 8.01562C34.5015 7.75195 33.7339 7.58203 32.937 7.58203C30.3472 7.58203 29.146 9.24023 29.146 11.8828L29.146 13.9688L27.3706 14.0859L27.3706 15.7441L29.146 15.7441L29.146 27L31.3316 27L31.3316 15.7441L34.0913 15.7441L34.0913 13.9688L31.3316 13.9688L31.3316 11.9062C31.3316 10.2246 31.9292 9.33398 33.1773 9.33398C33.6343 9.33398 34.1617 9.45703 34.6421 9.67383L35.1226 8.01562Z" fill="#19191A" fill-opacity="1.000000" transform="matrix(1 0 0 1 1135.95 12.6205)"/><path d="M7.52467 27L9.71022 27L9.71022 13.9688L7.52467 13.9688L7.52467 27ZM8.62624 11.2793C9.49342 11.2793 10.138 10.6816 10.138 9.86133C10.138 8.97656 9.49342 8.44922 8.62624 8.44922C7.76491 8.44922 7.11452 8.97656 7.11452 9.86133C7.11452 10.6816 7.76491 11.2793 8.62624 11.2793ZM14.1246 27L16.3102 27L16.3102 17.543C17.6286 16.2246 18.5368 15.5508 19.8844 15.5508C21.6129 15.5508 22.3571 16.582 22.3571 19.0312L22.3571 27L24.5368 27L24.5368 18.7441C24.5368 15.4102 23.2946 13.6348 20.5582 13.6348C18.777 13.6348 17.4352 14.6133 16.1871 15.8379L16.1168 15.8379L15.9235 13.9688L14.1246 13.9688L14.1246 27ZM35.1226 8.01562C34.5015 7.75195 33.7339 7.58203 32.937 7.58203C30.3472 7.58203 29.146 9.24023 29.146 11.8828L29.146 13.9688L27.3706 14.0859L27.3706 15.7441L29.146 15.7441L29.146 27L31.3316 27L31.3316 15.7441L34.0913 15.7441L34.0913 13.9688L31.3316 13.9688L31.3316 11.9062C31.3316 10.2246 31.9292 9.33398 33.1773 9.33398C33.6343 9.33398 34.1617 9.45703 34.6421 9.67383L35.1226 8.01562Z" fill="#19191A" fill-opacity="1.000000" transform="matrix(1 0 0 1 1139.2 377.977)"/><path d="M7.52467 27L9.71022 27L9.71022 13.9688L7.52467 13.9688L7.52467 27ZM8.62624 11.2793C9.49342 11.2793 10.138 10.6816 10.138 9.86133C10.138 8.97656 9.49342 8.44922 8.62624 8.44922C7.76491 8.44922 7.11452 8.97656 7.11452 9.86133C7.11452 10.6816 7.76491 11.2793 8.62624 11.2793ZM14.1246 27L16.3102 27L16.3102 17.543C17.6286 16.2246 18.5368 15.5508 19.8844 15.5508C21.6129 15.5508 22.3571 16.582 22.3571 19.0312L22.3571 27L24.5368 27L24.5368 18.7441C24.5368 15.4102 23.2946 13.6348 20.5582 13.6348C18.777 13.6348 17.4352 14.6133 16.1871 15.8379L16.1168 15.8379L15.9235 13.9688L14.1246 13.9688L14.1246 27ZM35.1226 8.01562C34.5015 7.75195 33.7339 7.58203 32.937 7.58203C30.3472 7.58203 29.146 9.24023 29.146 11.8828L29.146 13.9688L27.3706 14.0859L27.3706 15.7441L29.146 15.7441L29.146 27L31.3316 27L31.3316 15.7441L34.0913 15.7441L34.0913 13.9688L31.3316 13.9688L31.3316 11.9062C31.3316 10.2246 31.9292 9.33398 33.1773 9.33398C33.6343 9.33398 34.1617 9.45703 34.6421 9.67383L35.1226 8.01562Z" fill="#19191A" fill-opacity="1.000000" transform="matrix(1 0 0 1 1300.53 140.847)"/><path d="M84 42C84 65.196 65.196 84 42 84C18.804 84 0 65.196 0 42C0 18.804 18.804 0 42 0C65.196 0 84 18.804 84 42" fill="#ADDCFF" fill-opacity="1.000000" transform="matrix(1 0 0 1 1555.02 57.136)"/><path d="M84 42C84 65.196 65.196 84 42 84C18.804 84 0 65.196 0 42C0 18.804 18.804 0 42 0C65.196 0 84 18.804 84 42" fill="none" stroke="#19191A" stroke-opacity="1.000000" stroke-width="2" stroke-dasharray="0 0" transform="matrix(1 0 0 1 1555.02 57.136)"/><clipPath id="clip_1_112_0"><path d="M1567.02 81.136L1627.02 81.136L1627.02 141.136L1567.02 141.136L1567.02 81.136Z"/></clipPath><g clip-path="url(#clip_1_112_0)"><path d="M37.4494 51L47.0998 51L47.0998 49.1777L43.5724 49.1777L43.5724 33.4102L41.8908 33.4102C40.9299 33.9609 39.8049 34.3652 38.2463 34.6582L38.2463 36.0469L41.3635 36.0469L41.3635 49.1777L37.4494 49.1777L37.4494 51Z" fill="#19191A" fill-opacity="1.000000" transform="matrix(1 0 0 1 1555.02 57.136)"/></g><path d="M84 42C84 65.196 65.196 84 42 84C18.804 84 0 65.196 0 42C0 18.804 18.804 0 42 0C65.196 0 84 18.804 84 42" fill="#FEC5B8" fill-opacity="1.000000" transform="matrix(1 0 0 1 1391.02 183.095)"/><path d="M84 42C84 65.196 65.196 84 42 84C18.804 84 0 65.196 0 42C0 18.804 18.804 0 42 0C65.196 0 84 18.804 84 42" fill="none" stroke="#19191A" stroke-opacity="1.000000" stroke-width="2" stroke-dasharray="0 0" transform="matrix(1 0 0 1 1391.02 183.095)"/><clipPath id="clip_1_113_0"><path d="M1403.02 207.095L1463.02 207.095L1463.02 267.095L1403.02 267.095L1403.02 207.095Z"/></clipPath><g clip-path="url(#clip_1_113_0)"><path d="M42.0138 51.3105C45.3478 51.3105 47.4865 48.2637 47.4865 42.1465C47.4865 36.0469 45.3478 33.0703 42.0138 33.0703C38.6506 33.0703 36.5178 36.0234 36.5178 42.1465C36.5178 48.2637 38.6506 51.3105 42.0138 51.3105ZM42.0138 49.5586C39.9982 49.5586 38.6506 47.3262 38.6506 42.1465C38.6506 37.0078 39.9982 34.8457 42.0138 34.8457C44.006 34.8457 45.3478 37.0078 45.3478 42.1465C45.3478 47.3262 44.006 49.5586 42.0138 49.5586Z" fill="#19191A" fill-opacity="1.000000" transform="matrix(1 0 0 1 1391.02 183.095)"/></g><path d="M84 42C84 65.196 65.196 84 42 84C18.804 84 0 65.196 0 42C0 18.804 18.804 0 42 0C65.196 0 84 18.804 84 42" fill="#D5FFEC" fill-opacity="1.000000" transform="matrix(1 0 0 1 1561.02 290.136)"/><path d="M84 42C84 65.196 65.196 84 42 84C18.804 84 0 65.196 0 42C0 18.804 18.804 0 42 0C65.196 0 84 18.804 84 42" fill="none" stroke="#19191A" stroke-opacity="1.000000" stroke-width="2" stroke-dasharray="0 0" transform="matrix(1 0 0 1 1561.02 290.136)"/><clipPath id="clip_1_114_0"><path d="M1573.02 314.136L1633.02 314.136L1633.02 374.136L1573.02 374.136L1573.02 314.136Z"/></clipPath><g clip-path="url(#clip_1_114_0)"><path d="M36.3947 51L47.4572 51L47.4572 49.1016L42.5881 49.1016C41.6974 49.1016 40.6193 49.2012 39.7053 49.2715C43.8361 45.3574 46.5959 41.7832 46.5959 38.2793C46.5959 35.1387 44.6271 33.0703 41.4865 33.0703C39.2541 33.0703 37.7424 34.1016 36.301 35.666L37.5724 36.9141C38.5334 35.7598 39.7814 34.8691 41.2228 34.8691C43.4025 34.8691 44.4572 36.334 44.4572 38.3496C44.4572 41.3789 41.9142 44.8828 36.3947 49.7051L36.3947 51Z" fill="#19191A" fill-opacity="1.000000" transform="matrix(1 0 0 1 1561.02 290.136)"/></g><path d="M84 42C84 65.196 65.196 84 42 84C18.804 84 0 65.196 0 42C0 18.804 18.804 0 42 0C65.196 0 84 18.804 84 42" fill="#FFFFFF" fill-opacity="1.000000" transform="matrix(1 0 0 1 1790.02 57.136)"/><path d="M84 42C84 65.196 65.196 84 42 84C18.804 84 0 65.196 0 42C0 18.804 18.804 0 42 0C65.196 0 84 18.804 84 42" fill="none" stroke="#19191A" stroke-opacity="1.000000" stroke-width="2" stroke-dasharray="0 0" transform="matrix(1 0 0 1 1790.02 57.136)"/><clipPath id="clip_1_115_0"><path d="M1802.02 81.136L1862.02 81.136L1862.02 141.136L1802.02 141.136L1802.02 81.136Z"/></clipPath><g clip-path="url(#clip_1_115_0)"><path d="M41.674 51.3105C44.7971 51.3105 47.3166 49.4414 47.3166 46.2949C47.3166 43.8984 45.6584 42.3105 43.5724 41.8301L43.5724 41.7363C45.4416 41.0391 46.7189 39.6211 46.7189 37.4883C46.7189 34.6582 44.5568 33.0703 41.6037 33.0703C39.5646 33.0703 38.006 33.9609 36.6818 35.1855L37.8596 36.5742C38.8439 35.5898 40.092 34.8691 41.5099 34.8223C43.3322 34.8691 44.4865 35.9531 44.4865 37.6582C44.4865 39.5508 43.2385 41.0156 39.6115 41.0156L39.6115 42.6973C43.6662 42.6973 45.0842 44.1094 45.0842 46.2246C45.0842 48.2402 43.5959 49.4883 41.5099 49.4883C39.5178 49.4883 38.1701 48.5508 37.1388 47.4727L36.0373 48.9141C37.1857 50.1621 38.9142 51.3105 41.674 51.3105Z" fill="#19191A" fill-opacity="1.000000" transform="matrix(1 0 0 1 1790.02 57.136)"/></g><path d="M84 42C84 65.196 65.196 84 42 84C18.804 84 0 65.196 0 42C0 18.804 18.804 0 42 0C65.196 0 84 18.804 84 42" fill="#ADDCFF" fill-opacity="1.000000" transform="matrix(1 0 0 1 1790.02 290.136)"/><path d="M84 42C84 65.196 65.196 84 42 84C18.804 84 0 65.196 0 42C0 18.804 18.804 0 42 0C65.196 0 84 18.804 84 42" fill="none" stroke="#19191A" stroke-opacity="1.000000" stroke-width="2" stroke-dasharray="0 0" transform="matrix(1 0 0 1 1790.02 290.136)"/><clipPath id="clip_1_116_0"><path d="M1802.02 314.136L1862.02 314.136L1862.02 374.136L1802.02 374.136L1802.02 314.136Z"/></clipPath><g clip-path="url(#clip_1_116_0)"><path d="M38.0998 44.4023L42.1076 38.4023C42.6115 37.5352 43.092 36.6738 43.5256 35.8066L43.6193 35.8066C43.5724 36.7207 43.4787 38.1387 43.4787 39L43.4787 44.4023L38.0998 44.4023ZM47.8908 44.4023L45.5646 44.4023L45.5646 33.4102L43.1388 33.4102L35.8205 44.7129L35.8205 46.1543L43.4787 46.1543L43.4787 51L45.5646 51L45.5646 46.1543L47.8908 46.1543L47.8908 44.4023Z" fill="#19191A" fill-opacity="1.000000" transform="matrix(1 0 0 1 1790.02 290.136)"/></g><path d="M84 42C84 65.196 65.196 84 42 84C18.804 84 0 65.196 0 42C0 18.804 18.804 0 42 0C65.196 0 84 18.804 84 42" fill="#FFFFFF" fill-opacity="1.000000" transform="matrix(1 0 0 1 1951.02 184.136)"/><path d="M84 42C84 65.196 65.196 84 42 84C18.804 84 0 65.196 0 42C0 18.804 18.804 0 42 0C65.196 0 84 18.804 84 42" fill="none" stroke="#19191A" stroke-opacity="1.000000" stroke-width="2" stroke-dasharray="0 0" transform="matrix(1 0 0 1 1951.02 184.136)"/><clipPath id="clip_1_117_0"><path d="M1963.02 208.136L2023.02 208.136L2023.02 268.136L1963.02 268.136L1963.02 208.136Z"/></clipPath><g clip-path="url(#clip_1_117_0)"><path d="M41.6037 51.3105C44.5803 51.3105 47.3635 49.1309 47.3635 45.2637C47.3635 41.4023 44.9904 39.6738 42.0607 39.6738C41.006 39.6738 40.2092 39.9375 39.4416 40.3652L39.8752 35.2793L46.5256 35.2793L46.5256 33.4102L37.9533 33.4102L37.4025 41.6426L38.5803 42.3574C39.5881 41.6895 40.3322 41.3262 41.5099 41.3262C43.7189 41.3262 45.1545 42.8145 45.1545 45.334C45.1545 47.9062 43.4787 49.4883 41.4103 49.4883C39.3713 49.4883 38.0998 48.5508 37.092 47.543L36.0138 48.9844C37.1857 50.1621 38.8674 51.3105 41.6037 51.3105Z" fill="#19191A" fill-opacity="1.000000" transform="matrix(1 0 0 1 1951.02 184.136)"/></g><path d="M0 0L80.0117 -126.339" fill="none" stroke="#19191A" stroke-opacity="1.000000" stroke-width="2" stroke-linejoin="round" stroke-dasharray="0 0" transform="matrix(1 0 0 1 1475.01 225.475)"/><path d="M0 0L86 105" fill="none" stroke="#19191A" stroke-opacity="1.000000" stroke-width="2" stroke-linejoin="round" stroke-dasharray="0 0" transform="matrix(1 0 0 1 1475.02 227.136)"/><path d="M0 0L153.403 -0.054985" fill="none" stroke="#19191A" stroke-opacity="1.000000" stroke-width="2" stroke-linejoin="round" stroke-dasharray="0 0" transform="matrix(1 0 0 1 1640.81 350.496)"/><path d="M0 0L77 -103.634" fill="none" stroke="#19191A" stroke-opacity="1.000000" stroke-width="2" stroke-linejoin="round" stroke-dasharray="0 0" transform="matrix(1 0 0 1 1874.02 332.769)"/><path d="M0 0L77.0159 128.165" fill="none" stroke="#19191A" stroke-opacity="1.000000" stroke-width="2" stroke-linejoin="round" stroke-dasharray="0 0" transform="matrix(1 0 0 1 1874.02 99.1357)"/><path d="M0 0L158.766 1.36975" fill="none" stroke="#19191A" stroke-opacity="1.000000" stroke-width="2" stroke-linejoin="round" stroke-dasharray="0 0" transform="matrix(1 0 0 1 1634.82 80.808)"/><path d="M0 0L177.04 172.324" fill="none" stroke="#19191A" stroke-opacity="1.000000" stroke-width="2" stroke-linejoin="round" stroke-dasharray="0 0" transform="matrix(1 0 0 1 1624.61 130.808)"/><path d="M0 0L0 149" fill="none" stroke="#19191A" stroke-opacity="1.000000" stroke-width="2" stroke-linejoin="round" stroke-dasharray="0 0" transform="matrix(1 0 0 1 1832.02 141.136)"/><path d="M2.75977 20.4023L6.76758 14.4023C7.27148 13.5352 7.75195 12.6738 8.18555 11.8066L8.2793 11.8066C8.23242 12.7207 8.13867 14.1387 8.13867 15L8.13867 20.4023L2.75977 20.4023ZM12.5508 20.4023L10.2246 20.4023L10.2246 9.41016L7.79883 9.41016L0.480469 20.7129L0.480469 22.1543L8.13867 22.1543L8.13867 27L10.2246 27L10.2246 22.1543L12.5508 22.1543L12.5508 20.4023Z" fill="#19191A" fill-opacity="1.000000" transform="matrix(0.538391 -0.842695 0.842703 0.538379 1483.08 150.316)"/><path d="M6.33398 27.3105C9.45703 27.3105 11.9766 25.4414 11.9766 22.2949C11.9766 19.8984 10.3184 18.3105 8.23242 17.8301L8.23242 17.7363C10.1016 17.0391 11.3789 15.6211 11.3789 13.4883C11.3789 10.6582 9.2168 9.07031 6.26367 9.07031C4.22461 9.07031 2.66602 9.96094 1.3418 11.1855L2.51953 12.5742C3.50391 11.5898 4.75195 10.8691 6.16992 10.8223C7.99219 10.8691 9.14648 11.9531 9.14648 13.6582C9.14648 15.5508 7.89844 17.0156 4.27148 17.0156L4.27148 18.6973C8.32617 18.6973 9.74414 20.1094 9.74414 22.2246C9.74414 24.2402 8.25586 25.4883 6.16992 25.4883C4.17773 25.4883 2.83008 24.5508 1.79883 23.4727L0.697266 24.9141C1.8457 26.1621 3.57422 27.3105 6.33398 27.3105Z" fill="#19191A" fill-opacity="1.000000" transform="matrix(0.707107 0.707107 -0.707088 0.707126 1731.48 175.974)"/><path d="M1.05469 27L12.1172 27L12.1172 25.1016L7.24805 25.1016C6.35742 25.1016 5.2793 25.2012 4.36523 25.2715C8.49609 21.3574 11.2559 17.7832 11.2559 14.2793C11.2559 11.1387 9.28711 9.07031 6.14648 9.07031C3.91406 9.07031 2.40234 10.1016 0.960938 11.666L2.23242 12.9141C3.19336 11.7598 4.44141 10.8691 5.88281 10.8691C8.0625 10.8691 9.11719 12.334 9.11719 14.3496C9.11719 17.3789 6.57422 20.8828 1.05469 25.7051L1.05469 27Z" fill="#19191A" fill-opacity="1.000000" transform="matrix(0.604387 0.796691 -0.796677 0.604406 1545.11 247.197)"/><path d="M2.10938 27L11.7598 27L11.7598 25.1777L8.23242 25.1777L8.23242 9.41016L6.55078 9.41016C5.58984 9.96094 4.46484 10.3652 2.90625 10.6582L2.90625 12.0469L6.02344 12.0469L6.02344 25.1777L2.10938 25.1777L2.10938 27Z" fill="#19191A" fill-opacity="1.000000" transform="matrix(0.514353 0.857579 -0.857565 0.514376 1947.09 137.109)"/><path d="M1.05469 27L12.1172 27L12.1172 25.1016L7.24805 25.1016C6.35742 25.1016 5.2793 25.2012 4.36523 25.2715C8.49609 21.3574 11.2559 17.7832 11.2559 14.2793C11.2559 11.1387 9.28711 9.07031 6.14648 9.07031C3.91406 9.07031 2.40234 10.1016 0.960938 11.666L2.23242 12.9141C3.19336 11.7598 4.44141 10.8691 5.88281 10.8691C8.0625 10.8691 9.11719 12.334 9.11719 14.3496C9.11719 17.3789 6.57422 20.8828 1.05469 25.7051L1.05469 27Z" fill="#19191A" fill-opacity="1.000000" transform="matrix(1 0 -5.6514e-07 1 1699.33 43.6359)"/><path d="M1.05469 27L12.1172 27L12.1172 25.1016L7.24805 25.1016C6.35742 25.1016 5.2793 25.2012 4.36523 25.2715C8.49609 21.3574 11.2559 17.7832 11.2559 14.2793C11.2559 11.1387 9.28711 9.07031 6.14648 9.07031C3.91406 9.07031 2.40234 10.1016 0.960938 11.666L2.23242 12.9141C3.19336 11.7598 4.44141 10.8691 5.88281 10.8691C8.0625 10.8691 9.11719 12.334 9.11719 14.3496C9.11719 17.3789 6.57422 20.8828 1.05469 25.7051L1.05469 27Z" fill="#19191A" fill-opacity="1.000000" transform="matrix(1 0 -1.27157e-06 1 1708.52 319.866)"/><path d="M2.10938 27L11.7598 27L11.7598 25.1777L8.23242 25.1777L8.23242 9.41016L6.55078 9.41016C5.58984 9.96094 4.46484 10.3652 2.90625 10.6582L2.90625 12.0469L6.02344 12.0469L6.02344 25.1777L2.10938 25.1777L2.10938 27Z" fill="#19191A" fill-opacity="1.000000" transform="matrix(0.620615 -0.784116 0.784114 0.620618 1876.46 270.873)"/><path d="M6.67383 27.3105C10.0078 27.3105 12.1465 24.2637 12.1465 18.1465C12.1465 12.0469 10.0078 9.07031 6.67383 9.07031C3.31055 9.07031 1.17773 12.0234 1.17773 18.1465C1.17773 24.2637 3.31055 27.3105 6.67383 27.3105ZM6.67383 25.5586C4.6582 25.5586 3.31055 23.3262 3.31055 18.1465C3.31055 13.0078 4.6582 10.8457 6.67383 10.8457C8.66602 10.8457 10.0078 13.0078 10.0078 18.1465C10.0078 23.3262 8.66602 25.5586 6.67383 25.5586Z" fill="#ED1252" fill-opacity="1.000000" transform="matrix(1 0 0 1 1425.31 140.208)"/><path d="M15.9474 20.4023L19.9552 14.4023C20.4591 13.5352 20.9396 12.6738 21.3732 11.8066L21.467 11.8066C21.4201 12.7207 21.3263 14.1387 21.3263 15L21.3263 20.4023L15.9474 20.4023ZM25.7384 20.4023L23.4123 20.4023L23.4123 9.41016L20.9865 9.41016L13.6681 20.7129L13.6681 22.1543L21.3263 22.1543L21.3263 27L23.4123 27L23.4123 22.1543L25.7384 22.1543L25.7384 20.4023Z" fill="#43ABFF" fill-opacity="1.000000" transform="matrix(1 0 0 1 1575.13 7.63593)"/><path d="M14.2423 27L25.3048 27L25.3048 25.1016L20.4357 25.1016C19.5451 25.1016 18.467 25.2012 17.5529 25.2715C21.6838 21.3574 24.4435 17.7832 24.4435 14.2793C24.4435 11.1387 22.4748 9.07031 19.3341 9.07031C17.1017 9.07031 15.59 10.1016 14.1486 11.666L15.4201 12.9141C16.381 11.7598 17.6291 10.8691 19.0705 10.8691C21.2502 10.8691 22.3048 12.334 22.3048 14.3496C22.3048 17.3789 19.7619 20.8828 14.2423 25.7051L14.2423 27Z" fill="#00C691" fill-opacity="1.000000" transform="matrix(1 0 0 1 1580.27 373.847)"/><path d="M7.52467 27L9.71022 27L9.71022 13.9688L7.52467 13.9688L7.52467 27ZM8.62624 11.2793C9.49342 11.2793 10.138 10.6816 10.138 9.86133C10.138 8.97656 9.49342 8.44922 8.62624 8.44922C7.76491 8.44922 7.11452 8.97656 7.11452 9.86133C7.11452 10.6816 7.76491 11.2793 8.62624 11.2793ZM14.1246 27L16.3102 27L16.3102 17.543C17.6286 16.2246 18.5368 15.5508 19.8844 15.5508C21.6129 15.5508 22.3571 16.582 22.3571 19.0312L22.3571 27L24.5368 27L24.5368 18.7441C24.5368 15.4102 23.2946 13.6348 20.5582 13.6348C18.777 13.6348 17.4352 14.6133 16.1871 15.8379L16.1168 15.8379L15.9235 13.9688L14.1246 13.9688L14.1246 27ZM35.1226 8.01562C34.5015 7.75195 33.7339 7.58203 32.937 7.58203C30.3472 7.58203 29.146 9.24023 29.146 11.8828L29.146 13.9688L27.3706 14.0859L27.3706 15.7441L29.146 15.7441L29.146 27L31.3316 27L31.3316 15.7441L34.0913 15.7441L34.0913 13.9688L31.3316 13.9688L31.3316 11.9062C31.3316 10.2246 31.9292 9.33398 33.1773 9.33398C33.6343 9.33398 34.1617 9.45703 34.6421 9.67383L35.1226 8.01562Z" fill="#19191A" fill-opacity="1.000000" transform="matrix(1 0 0 1 1812.17 12.6205)"/><path d="M15.9474 20.4023L19.9552 14.4023C20.4591 13.5352 20.9396 12.6738 21.3732 11.8066L21.467 11.8066C21.4201 12.7207 21.3263 14.1387 21.3263 15L21.3263 20.4023L15.9474 20.4023ZM25.7384 20.4023L23.4123 20.4023L23.4123 9.41016L20.9865 9.41016L13.6681 20.7129L13.6681 22.1543L21.3263 22.1543L21.3263 27L23.4123 27L23.4123 22.1543L25.7384 22.1543L25.7384 20.4023Z" fill="#43ABFF" fill-opacity="1.000000" transform="matrix(1 0 0 1 1815.42 377.977)"/><path d="M7.52467 27L9.71022 27L9.71022 13.9688L7.52467 13.9688L7.52467 27ZM8.62624 11.2793C9.49342 11.2793 10.138 10.6816 10.138 9.86133C10.138 8.97656 9.49342 8.44922 8.62624 8.44922C7.76491 8.44922 7.11452 8.97656 7.11452 9.86133C7.11452 10.6816 7.76491 11.2793 8.62624 11.2793ZM14.1246 27L16.3102 27L16.3102 17.543C17.6286 16.2246 18.5368 15.5508 19.8844 15.5508C21.6129 15.5508 22.3571 16.582 22.3571 19.0312L22.3571 27L24.5368 27L24.5368 18.7441C24.5368 15.4102 23.2946 13.6348 20.5582 13.6348C18.777 13.6348 17.4352 14.6133 16.1871 15.8379L16.1168 15.8379L15.9235 13.9688L14.1246 13.9688L14.1246 27ZM35.1226 8.01562C34.5015 7.75195 33.7339 7.58203 32.937 7.58203C30.3472 7.58203 29.146 9.24023 29.146 11.8828L29.146 13.9688L27.3706 14.0859L27.3706 15.7441L29.146 15.7441L29.146 27L31.3316 27L31.3316 15.7441L34.0913 15.7441L34.0913 13.9688L31.3316 13.9688L31.3316 11.9062C31.3316 10.2246 31.9292 9.33398 33.1773 9.33398C33.6343 9.33398 34.1617 9.45703 34.6421 9.67383L35.1226 8.01562Z" fill="#19191A" fill-opacity="1.000000" transform="matrix(1 0 0 1 1976.75 140.847)"/><path d="M84 42C84 65.196 65.196 84 42 84C18.804 84 0 65.196 0 42C0 18.804 18.804 0 42 0C65.196 0 84 18.804 84 42" fill="#D3FEFC" fill-opacity="1.000000" transform="matrix(1 0 0 1 177.373 564.435)"/><path d="M84 42C84 65.196 65.196 84 42 84C18.804 84 0 65.196 0 42C0 18.804 18.804 0 42 0C65.196 0 84 18.804 84 42" fill="none" stroke="#19191A" stroke-opacity="1.000000" stroke-width="2" stroke-dasharray="0 0" transform="matrix(1 0 0 1 177.373 564.435)"/><clipPath id="clip_1_139_0"><path d="M189.373 588.435L249.373 588.435L249.373 648.435L189.373 648.435L189.373 588.435Z"/></clipPath><g clip-path="url(#clip_1_139_0)"><path d="M37.4494 51L47.0998 51L47.0998 49.1777L43.5724 49.1777L43.5724 33.4102L41.8908 33.4102C40.9299 33.9609 39.8049 34.3652 38.2463 34.6582L38.2463 36.0469L41.3635 36.0469L41.3635 49.1777L37.4494 49.1777L37.4494 51Z" fill="#19191A" fill-opacity="1.000000" transform="matrix(1 0 0 1 177.373 564.435)"/></g><path d="M84 42C84 65.196 65.196 84 42 84C18.804 84 0 65.196 0 42C0 18.804 18.804 0 42 0C65.196 0 84 18.804 84 42" fill="#FEC5B8" fill-opacity="1.000000" transform="matrix(1 0 0 1 13.3728 690.394)"/><path d="M84 42C84 65.196 65.196 84 42 84C18.804 84 0 65.196 0 42C0 18.804 18.804 0 42 0C65.196 0 84 18.804 84 42" fill="none" stroke="#19191A" stroke-opacity="1.000000" stroke-width="2" stroke-dasharray="0 0" transform="matrix(1 0 0 1 13.3728 690.394)"/><clipPath id="clip_1_140_0"><path d="M25.3728 714.394L85.3728 714.394L85.3728 774.394L25.3728 774.394L25.3728 714.394Z"/></clipPath><g clip-path="url(#clip_1_140_0)"><path d="M42.0138 51.3105C45.3478 51.3105 47.4865 48.2637 47.4865 42.1465C47.4865 36.0469 45.3478 33.0703 42.0138 33.0703C38.6506 33.0703 36.5178 36.0234 36.5178 42.1465C36.5178 48.2637 38.6506 51.3105 42.0138 51.3105ZM42.0138 49.5586C39.9982 49.5586 38.6506 47.3262 38.6506 42.1465C38.6506 37.0078 39.9982 34.8457 42.0138 34.8457C44.006 34.8457 45.3478 37.0078 45.3478 42.1465C45.3478 47.3262 44.006 49.5586 42.0138 49.5586Z" fill="#19191A" fill-opacity="1.000000" transform="matrix(1 0 0 1 13.3728 690.394)"/></g><path d="M84 42C84 65.196 65.196 84 42 84C18.804 84 0 65.196 0 42C0 18.804 18.804 0 42 0C65.196 0 84 18.804 84 42" fill="#FEC5B8" fill-opacity="1.000000" transform="matrix(1 0 0 1 183.373 797.435)"/><path d="M84 42C84 65.196 65.196 84 42 84C18.804 84 0 65.196 0 42C0 18.804 18.804 0 42 0C65.196 0 84 18.804 84 42" fill="none" stroke="#19191A" stroke-opacity="1.000000" stroke-width="2" stroke-dasharray="0 0" transform="matrix(1 0 0 1 183.373 797.435)"/><clipPath id="clip_1_141_0"><path d="M195.373 821.435L255.373 821.435L255.373 881.435L195.373 881.435L195.373 821.435Z"/></clipPath><g clip-path="url(#clip_1_141_0)"><path d="M36.3947 51L47.4572 51L47.4572 49.1016L42.5881 49.1016C41.6974 49.1016 40.6193 49.2012 39.7053 49.2715C43.8361 45.3574 46.5959 41.7832 46.5959 38.2793C46.5959 35.1387 44.6271 33.0703 41.4865 33.0703C39.2541 33.0703 37.7424 34.1016 36.301 35.666L37.5724 36.9141C38.5334 35.7598 39.7814 34.8691 41.2228 34.8691C43.4025 34.8691 44.4572 36.334 44.4572 38.3496C44.4572 41.3789 41.9142 44.8828 36.3947 49.7051L36.3947 51Z" fill="#19191A" fill-opacity="1.000000" transform="matrix(1 0 0 1 183.373 797.435)"/></g><path d="M84 42C84 65.196 65.196 84 42 84C18.804 84 0 65.196 0 42C0 18.804 18.804 0 42 0C65.196 0 84 18.804 84 42" fill="#ADDCFF" fill-opacity="1.000000" transform="matrix(1 0 0 1 412.373 564.435)"/><path d="M84 42C84 65.196 65.196 84 42 84C18.804 84 0 65.196 0 42C0 18.804 18.804 0 42 0C65.196 0 84 18.804 84 42" fill="none" stroke="#19191A" stroke-opacity="1.000000" stroke-width="2" stroke-dasharray="0 0" transform="matrix(1 0 0 1 412.373 564.435)"/><clipPath id="clip_1_142_0"><path d="M424.373 588.435L484.373 588.435L484.373 648.435L424.373 648.435L424.373 588.435Z"/></clipPath><g clip-path="url(#clip_1_142_0)"><path d="M41.674 51.3105C44.7971 51.3105 47.3166 49.4414 47.3166 46.2949C47.3166 43.8984 45.6584 42.3105 43.5724 41.8301L43.5724 41.7363C45.4416 41.0391 46.7189 39.6211 46.7189 37.4883C46.7189 34.6582 44.5568 33.0703 41.6037 33.0703C39.5646 33.0703 38.006 33.9609 36.6818 35.1855L37.8596 36.5742C38.8439 35.5898 40.092 34.8691 41.5099 34.8223C43.3322 34.8691 44.4865 35.9531 44.4865 37.6582C44.4865 39.5508 43.2385 41.0156 39.6115 41.0156L39.6115 42.6973C43.6662 42.6973 45.0842 44.1094 45.0842 46.2246C45.0842 48.2402 43.5959 49.4883 41.5099 49.4883C39.5178 49.4883 38.1701 48.5508 37.1388 47.4727L36.0373 48.9141C37.1857 50.1621 38.9142 51.3105 41.674 51.3105Z" fill="#19191A" fill-opacity="1.000000" transform="matrix(1 0 0 1 412.373 564.435)"/></g><path d="M84 42C84 65.196 65.196 84 42 84C18.804 84 0 65.196 0 42C0 18.804 18.804 0 42 0C65.196 0 84 18.804 84 42" fill="#ADDCFF" fill-opacity="1.000000" transform="matrix(1 0 0 1 412.373 797.435)"/><path d="M84 42C84 65.196 65.196 84 42 84C18.804 84 0 65.196 0 42C0 18.804 18.804 0 42 0C65.196 0 84 18.804 84 42" fill="none" stroke="#19191A" stroke-opacity="1.000000" stroke-width="2" stroke-dasharray="0 0" transform="matrix(1 0 0 1 412.373 797.435)"/><clipPath id="clip_1_143_0"><path d="M424.373 821.435L484.373 821.435L484.373 881.435L424.373 881.435L424.373 821.435Z"/></clipPath><g clip-path="url(#clip_1_143_0)"><path d="M38.0998 44.4023L42.1076 38.4023C42.6115 37.5352 43.092 36.6738 43.5256 35.8066L43.6193 35.8066C43.5724 36.7207 43.4787 38.1387 43.4787 39L43.4787 44.4023L38.0998 44.4023ZM47.8908 44.4023L45.5646 44.4023L45.5646 33.4102L43.1388 33.4102L35.8205 44.7129L35.8205 46.1543L43.4787 46.1543L43.4787 51L45.5646 51L45.5646 46.1543L47.8908 46.1543L47.8908 44.4023Z" fill="#19191A" fill-opacity="1.000000" transform="matrix(1 0 0 1 412.373 797.435)"/></g><path d="M84 42C84 65.196 65.196 84 42 84C18.804 84 0 65.196 0 42C0 18.804 18.804 0 42 0C65.196 0 84 18.804 84 42" fill="#FFFFFF" fill-opacity="1.000000" transform="matrix(1 0 0 1 573.373 691.435)"/><path d="M84 42C84 65.196 65.196 84 42 84C18.804 84 0 65.196 0 42C0 18.804 18.804 0 42 0C65.196 0 84 18.804 84 42" fill="none" stroke="#19191A" stroke-opacity="1.000000" stroke-width="2" stroke-dasharray="0 0" transform="matrix(1 0 0 1 573.373 691.435)"/><clipPath id="clip_1_144_0"><path d="M585.373 715.435L645.373 715.435L645.373 775.435L585.373 775.435L585.373 715.435Z"/></clipPath><g clip-path="url(#clip_1_144_0)"><path d="M41.6037 51.3105C44.5803 51.3105 47.3635 49.1309 47.3635 45.2637C47.3635 41.4023 44.9904 39.6738 42.0607 39.6738C41.006 39.6738 40.2092 39.9375 39.4416 40.3652L39.8752 35.2793L46.5256 35.2793L46.5256 33.4102L37.9533 33.4102L37.4025 41.6426L38.5803 42.3574C39.5881 41.6895 40.3322 41.3262 41.5099 41.3262C43.7189 41.3262 45.1545 42.8145 45.1545 45.334C45.1545 47.9062 43.4787 49.4883 41.4103 49.4883C39.3713 49.4883 38.0998 48.5508 37.092 47.543L36.0138 48.9844C37.1857 50.1621 38.8674 51.3105 41.6037 51.3105Z" fill="#19191A" fill-opacity="1.000000" transform="matrix(1 0 0 1 573.373 691.435)"/></g><path d="M0 0L80.0118 -126.339" fill="none" stroke="#19191A" stroke-opacity="1.000000" stroke-width="2" stroke-linejoin="round" stroke-dasharray="0 0" transform="matrix(1 0 0 1 97.361 732.773)"/><path d="M0 0L86 105" fill="none" stroke="#19191A" stroke-opacity="1.000000" stroke-width="2" stroke-linejoin="round" stroke-dasharray="0 0" transform="matrix(1 0 0 1 97.3727 734.435)"/><path d="M0 0L153.408 -0.054966" fill="none" stroke="#19191A" stroke-opacity="1.000000" stroke-width="2" stroke-linejoin="round" stroke-dasharray="0 0" transform="matrix(1 0 0 1 263.158 857.795)"/><path d="M0 0L77 -103.634" fill="none" stroke="#19191A" stroke-opacity="1.000000" stroke-width="2" stroke-linejoin="round" stroke-dasharray="0 0" transform="matrix(1 0 0 1 496.373 840.068)"/><path d="M0 0L77.0157 128.165" fill="none" stroke="#19191A" stroke-opacity="1.000000" stroke-width="2" stroke-linejoin="round" stroke-dasharray="0 0" transform="matrix(1 0 0 1 496.373 606.435)"/><path d="M0 0L158.763 1.36975" fill="none" stroke="#19191A" stroke-opacity="1.000000" stroke-width="2" stroke-linejoin="round" stroke-dasharray="0 0" transform="matrix(1 0 0 1 257.173 588.107)"/><path d="M0 0L177.04 172.325" fill="none" stroke="#19191A" stroke-opacity="1.000000" stroke-width="2" stroke-linejoin="round" stroke-dasharray="0 0" transform="matrix(1 0 0 1 246.958 638.107)"/><path d="M0 0L7.62939e-06 149" fill="none" stroke="#19191A" stroke-opacity="1.000000" stroke-width="2" stroke-linejoin="round" stroke-dasharray="0 0" transform="matrix(1 0 0 1 454.373 648.435)"/><path d="M2.75977 20.4023L6.76758 14.4023C7.27148 13.5352 7.75195 12.6738 8.18555 11.8066L8.2793 11.8066C8.23242 12.7207 8.13867 14.1387 8.13867 15L8.13867 20.4023L2.75977 20.4023ZM12.5508 20.4023L10.2246 20.4023L10.2246 9.41016L7.79883 9.41016L0.480469 20.7129L0.480469 22.1543L8.13867 22.1543L8.13867 27L10.2246 27L10.2246 22.1543L12.5508 22.1543L12.5508 20.4023Z" fill="#19191A" fill-opacity="1.000000" transform="matrix(0.538391 -0.842695 0.842706 0.538374 105.434 657.614)"/><path d="M6.33398 27.3105C9.45703 27.3105 11.9766 25.4414 11.9766 22.2949C11.9766 19.8984 10.3184 18.3105 8.23242 17.8301L8.23242 17.7363C10.1016 17.0391 11.3789 15.6211 11.3789 13.4883C11.3789 10.6582 9.2168 9.07031 6.26367 9.07031C4.22461 9.07031 2.66602 9.96094 1.3418 11.1855L2.51953 12.5742C3.50391 11.5898 4.75195 10.8691 6.16992 10.8223C7.99219 10.8691 9.14648 11.9531 9.14648 13.6582C9.14648 15.5508 7.89844 17.0156 4.27148 17.0156L4.27148 18.6973C8.32617 18.6973 9.74414 20.1094 9.74414 22.2246C9.74414 24.2402 8.25586 25.4883 6.16992 25.4883C4.17773 25.4883 2.83008 24.5508 1.79883 23.4727L0.697266 24.9141C1.8457 26.1621 3.57422 27.3105 6.33398 27.3105Z" fill="#19191A" fill-opacity="1.000000" transform="matrix(0.707107 0.707107 -0.707088 0.707126 353.83 683.272)"/><path d="M1.05469 27L12.1172 27L12.1172 25.1016L7.24805 25.1016C6.35742 25.1016 5.2793 25.2012 4.36523 25.2715C8.49609 21.3574 11.2559 17.7832 11.2559 14.2793C11.2559 11.1387 9.28711 9.07031 6.14648 9.07031C3.91406 9.07031 2.40234 10.1016 0.960938 11.666L2.23242 12.9141C3.19336 11.7598 4.44141 10.8691 5.88281 10.8691C8.0625 10.8691 9.11719 12.334 9.11719 14.3496C9.11719 17.3789 6.57422 20.8828 1.05469 25.7051L1.05469 27Z" fill="#19191A" fill-opacity="1.000000" transform="matrix(0.604387 0.796691 -0.796671 0.604413 167.465 754.495)"/><path d="M2.10938 27L11.7598 27L11.7598 25.1777L8.23242 25.1777L8.23242 9.41016L6.55078 9.41016C5.58984 9.96094 4.46484 10.3652 2.90625 10.6582L2.90625 12.0469L6.02344 12.0469L6.02344 25.1777L2.10938 25.1777L2.10938 27Z" fill="#19191A" fill-opacity="1.000000" transform="matrix(0.514353 0.857579 -0.857561 0.514382 569.442 644.407)"/><path d="M1.05469 27L12.1172 27L12.1172 25.1016L7.24805 25.1016C6.35742 25.1016 5.2793 25.2012 4.36523 25.2715C8.49609 21.3574 11.2559 17.7832 11.2559 14.2793C11.2559 11.1387 9.28711 9.07031 6.14648 9.07031C3.91406 9.07031 2.40234 10.1016 0.960938 11.666L2.23242 12.9141C3.19336 11.7598 4.44141 10.8691 5.88281 10.8691C8.0625 10.8691 9.11719 12.334 9.11719 14.3496C9.11719 17.3789 6.57422 20.8828 1.05469 25.7051L1.05469 27Z" fill="#19191A" fill-opacity="1.000000" transform="matrix(1 0 -5.6514e-07 1 321.685 550.935)"/><path d="M1.05469 27L12.1172 27L12.1172 25.1016L7.24805 25.1016C6.35742 25.1016 5.2793 25.2012 4.36523 25.2715C8.49609 21.3574 11.2559 17.7832 11.2559 14.2793C11.2559 11.1387 9.28711 9.07031 6.14648 9.07031C3.91406 9.07031 2.40234 10.1016 0.960938 11.666L2.23242 12.9141C3.19336 11.7598 4.44141 10.8691 5.88281 10.8691C8.0625 10.8691 9.11719 12.334 9.11719 14.3496C9.11719 17.3789 6.57422 20.8828 1.05469 25.7051L1.05469 27Z" fill="#19191A" fill-opacity="1.000000" transform="matrix(1 0 -1.27157e-06 1 330.872 827.165)"/><path d="M2.10938 27L11.7598 27L11.7598 25.1777L8.23242 25.1777L8.23242 9.41016L6.55078 9.41016C5.58984 9.96094 4.46484 10.3652 2.90625 10.6582L2.90625 12.0469L6.02344 12.0469L6.02344 25.1777L2.10938 25.1777L2.10938 27Z" fill="#19191A" fill-opacity="1.000000" transform="matrix(0.620615 -0.784116 0.784114 0.620618 498.812 778.171)"/><path d="M6.67383 27.3105C10.0078 27.3105 12.1465 24.2637 12.1465 18.1465C12.1465 12.0469 10.0078 9.07031 6.67383 9.07031C3.31055 9.07031 1.17773 12.0234 1.17773 18.1465C1.17773 24.2637 3.31055 27.3105 6.67383 27.3105ZM6.67383 25.5586C4.6582 25.5586 3.31055 23.3262 3.31055 18.1465C3.31055 13.0078 4.6582 10.8457 6.67383 10.8457C8.66602 10.8457 10.0078 13.0078 10.0078 18.1465C10.0078 23.3262 8.66602 25.5586 6.67383 25.5586Z" fill="#ED1252" fill-opacity="1.000000" transform="matrix(1 0 0 1 47.6604 647.507)"/><path d="M15.9474 20.4023L19.9552 14.4023C20.4591 13.5352 20.9396 12.6738 21.3732 11.8066L21.467 11.8066C21.4201 12.7207 21.3263 14.1387 21.3263 15L21.3263 20.4023L15.9474 20.4023ZM25.7384 20.4023L23.4123 20.4023L23.4123 9.41016L20.9865 9.41016L13.6681 20.7129L13.6681 22.1543L21.3263 22.1543L21.3263 27L23.4123 27L23.4123 22.1543L25.7384 22.1543L25.7384 20.4023Z" fill="#00C691" fill-opacity="1.000000" transform="matrix(1 0 0 1 197.485 514.935)"/><path d="M14.2423 27L25.3048 27L25.3048 25.1016L20.4357 25.1016C19.5451 25.1016 18.467 25.2012 17.5529 25.2715C21.6838 21.3574 24.4435 17.7832 24.4435 14.2793C24.4435 11.1387 22.4748 9.07031 19.3341 9.07031C17.1017 9.07031 15.59 10.1016 14.1486 11.666L15.4201 12.9141C16.381 11.7598 17.6291 10.8691 19.0705 10.8691C21.2502 10.8691 22.3048 12.334 22.3048 14.3496C22.3048 17.3789 19.7619 20.8828 14.2423 25.7051L14.2423 27Z" fill="#ED1252" fill-opacity="1.000000" transform="matrix(1 0 0 1 204.526 881.146)"/><path d="M20.4123 25.6055C18.2033 25.6055 16.8849 23.6133 16.6213 19.9688C17.7697 18.334 19.1173 17.7129 20.2189 17.7129C22.3576 17.7129 23.3888 19.2246 23.3888 21.5977C23.3888 24 22.0939 25.6055 20.4123 25.6055ZM25.1408 10.8691C24.1798 9.83789 22.8615 9.07031 21.0334 9.07031C17.6291 9.07031 14.5295 11.7129 14.5295 18.5977C14.5295 24.4102 17.0256 27.3105 20.4123 27.3105C23.1486 27.3105 25.4513 25.0078 25.4513 21.5977C25.4513 17.9297 23.5529 16.0781 20.5822 16.0781C19.1877 16.0781 17.6525 16.8984 16.5744 18.2168C16.6681 12.7441 18.7072 10.8984 21.1095 10.8984C22.1877 10.8984 23.2423 11.4023 23.9396 12.2402L25.1408 10.8691Z" fill="#43ABFF" fill-opacity="1.000000" transform="matrix(1 0 0 1 434.525 519.919)"/><path d="M15.9474 20.4023L19.9552 14.4023C20.4591 13.5352 20.9396 12.6738 21.3732 11.8066L21.467 11.8066C21.4201 12.7207 21.3263 14.1387 21.3263 15L21.3263 20.4023L15.9474 20.4023ZM25.7384 20.4023L23.4123 20.4023L23.4123 9.41016L20.9865 9.41016L13.6681 20.7129L13.6681 22.1543L21.3263 22.1543L21.3263 27L23.4123 27L23.4123 22.1543L25.7384 22.1543L25.7384 20.4023Z" fill="#43ABFF" fill-opacity="1.000000" transform="matrix(1 0 0 1 437.769 885.275)"/><path d="M7.52467 27L9.71022 27L9.71022 13.9688L7.52467 13.9688L7.52467 27ZM8.62624 11.2793C9.49342 11.2793 10.138 10.6816 10.138 9.86133C10.138 8.97656 9.49342 8.44922 8.62624 8.44922C7.76491 8.44922 7.11452 8.97656 7.11452 9.86133C7.11452 10.6816 7.76491 11.2793 8.62624 11.2793ZM14.1246 27L16.3102 27L16.3102 17.543C17.6286 16.2246 18.5368 15.5508 19.8844 15.5508C21.6129 15.5508 22.3571 16.582 22.3571 19.0312L22.3571 27L24.5368 27L24.5368 18.7441C24.5368 15.4102 23.2946 13.6348 20.5582 13.6348C18.777 13.6348 17.4352 14.6133 16.1871 15.8379L16.1168 15.8379L15.9235 13.9688L14.1246 13.9688L14.1246 27ZM35.1226 8.01562C34.5015 7.75195 33.7339 7.58203 32.937 7.58203C30.3472 7.58203 29.146 9.24023 29.146 11.8828L29.146 13.9688L27.3706 14.0859L27.3706 15.7441L29.146 15.7441L29.146 27L31.3316 27L31.3316 15.7441L34.0913 15.7441L34.0913 13.9688L31.3316 13.9688L31.3316 11.9062C31.3316 10.2246 31.9292 9.33398 33.1773 9.33398C33.6343 9.33398 34.1617 9.45703 34.6421 9.67383L35.1226 8.01562Z" fill="#19191A" fill-opacity="1.000000" transform="matrix(1 0 0 1 599.106 648.146)"/><path d="M0 0L-4.18823 -2.57831" fill="none" stroke="#19191A" stroke-opacity="1.000000" stroke-width="2" stroke-linejoin="round" stroke-dasharray="0 0" transform="matrix(1 0 0 1 1639.02 99.1361)"/><path d="M84 42C84 65.196 65.196 84 42 84C18.804 84 0 65.196 0 42C0 18.804 18.804 0 42 0C65.196 0 84 18.804 84 42" fill="#FEC5B8" fill-opacity="1.000000" transform="matrix(1 0 0 1 871.81 569.419)"/><path d="M84 42C84 65.196 65.196 84 42 84C18.804 84 0 65.196 0 42C0 18.804 18.804 0 42 0C65.196 0 84 18.804 84 42" fill="none" stroke="#19191A" stroke-opacity="1.000000" stroke-width="2" stroke-dasharray="0 0" transform="matrix(1 0 0 1 871.81 569.419)"/><clipPath id="clip_1_167_0"><path d="M883.81 593.419L943.81 593.419L943.81 653.419L883.81 653.419L883.81 593.419Z"/></clipPath><g clip-path="url(#clip_1_167_0)"><path d="M37.4494 51L47.0998 51L47.0998 49.1777L43.5724 49.1777L43.5724 33.4102L41.8908 33.4102C40.9299 33.9609 39.8049 34.3652 38.2463 34.6582L38.2463 36.0469L41.3635 36.0469L41.3635 49.1777L37.4494 49.1777L37.4494 51Z" fill="#19191A" fill-opacity="1.000000" transform="matrix(1 0 0 1 871.81 569.419)"/></g><path d="M84 42C84 65.196 65.196 84 42 84C18.804 84 0 65.196 0 42C0 18.804 18.804 0 42 0C65.196 0 84 18.804 84 42" fill="#FEC5B8" fill-opacity="1.000000" transform="matrix(1 0 0 1 707.81 695.378)"/><path d="M84 42C84 65.196 65.196 84 42 84C18.804 84 0 65.196 0 42C0 18.804 18.804 0 42 0C65.196 0 84 18.804 84 42" fill="none" stroke="#19191A" stroke-opacity="1.000000" stroke-width="2" stroke-dasharray="0 0" transform="matrix(1 0 0 1 707.81 695.378)"/><clipPath id="clip_1_168_0"><path d="M719.81 719.378L779.81 719.378L779.81 779.378L719.81 779.378L719.81 719.378Z"/></clipPath><g clip-path="url(#clip_1_168_0)"><path d="M42.0138 51.3105C45.3478 51.3105 47.4865 48.2637 47.4865 42.1465C47.4865 36.0469 45.3478 33.0703 42.0138 33.0703C38.6506 33.0703 36.5178 36.0234 36.5178 42.1465C36.5178 48.2637 38.6506 51.3105 42.0138 51.3105ZM42.0138 49.5586C39.9982 49.5586 38.6506 47.3262 38.6506 42.1465C38.6506 37.0078 39.9982 34.8457 42.0138 34.8457C44.006 34.8457 45.3478 37.0078 45.3478 42.1465C45.3478 47.3262 44.006 49.5586 42.0138 49.5586Z" fill="#19191A" fill-opacity="1.000000" transform="matrix(1 0 0 1 707.81 695.378)"/></g><path d="M84 42C84 65.196 65.196 84 42 84C18.804 84 0 65.196 0 42C0 18.804 18.804 0 42 0C65.196 0 84 18.804 84 42" fill="#FEC5B8" fill-opacity="1.000000" transform="matrix(1 0 0 1 877.81 802.419)"/><path d="M84 42C84 65.196 65.196 84 42 84C18.804 84 0 65.196 0 42C0 18.804 18.804 0 42 0C65.196 0 84 18.804 84 42" fill="none" stroke="#19191A" stroke-opacity="1.000000" stroke-width="2" stroke-dasharray="0 0" transform="matrix(1 0 0 1 877.81 802.419)"/><clipPath id="clip_1_169_0"><path d="M889.81 826.419L949.81 826.419L949.81 886.419L889.81 886.419L889.81 826.419Z"/></clipPath><g clip-path="url(#clip_1_169_0)"><path d="M36.3947 51L47.4572 51L47.4572 49.1016L42.5881 49.1016C41.6974 49.1016 40.6193 49.2012 39.7053 49.2715C43.8361 45.3574 46.5959 41.7832 46.5959 38.2793C46.5959 35.1387 44.6271 33.0703 41.4865 33.0703C39.2541 33.0703 37.7424 34.1016 36.301 35.666L37.5724 36.9141C38.5334 35.7598 39.7814 34.8691 41.2228 34.8691C43.4025 34.8691 44.4572 36.334 44.4572 38.3496C44.4572 41.3789 41.9142 44.8828 36.3947 49.7051L36.3947 51Z" fill="#19191A" fill-opacity="1.000000" transform="matrix(1 0 0 1 877.81 802.419)"/></g><path d="M84 42C84 65.196 65.196 84 42 84C18.804 84 0 65.196 0 42C0 18.804 18.804 0 42 0C65.196 0 84 18.804 84 42" fill="#ADDCFF" fill-opacity="1.000000" transform="matrix(1 0 0 1 1106.81 569.419)"/><path d="M84 42C84 65.196 65.196 84 42 84C18.804 84 0 65.196 0 42C0 18.804 18.804 0 42 0C65.196 0 84 18.804 84 42" fill="none" stroke="#19191A" stroke-opacity="1.000000" stroke-width="2" stroke-dasharray="0 0" transform="matrix(1 0 0 1 1106.81 569.419)"/><clipPath id="clip_1_170_0"><path d="M1118.81 593.419L1178.81 593.419L1178.81 653.419L1118.81 653.419L1118.81 593.419Z"/></clipPath><g clip-path="url(#clip_1_170_0)"><path d="M41.674 51.3105C44.7971 51.3105 47.3166 49.4414 47.3166 46.2949C47.3166 43.8984 45.6584 42.3105 43.5724 41.8301L43.5724 41.7363C45.4416 41.0391 46.7189 39.6211 46.7189 37.4883C46.7189 34.6582 44.5568 33.0703 41.6037 33.0703C39.5646 33.0703 38.006 33.9609 36.6818 35.1855L37.8596 36.5742C38.8439 35.5898 40.092 34.8691 41.5099 34.8223C43.3322 34.8691 44.4865 35.9531 44.4865 37.6582C44.4865 39.5508 43.2385 41.0156 39.6115 41.0156L39.6115 42.6973C43.6662 42.6973 45.0842 44.1094 45.0842 46.2246C45.0842 48.2402 43.5959 49.4883 41.5099 49.4883C39.5178 49.4883 38.1701 48.5508 37.1388 47.4727L36.0373 48.9141C37.1857 50.1621 38.9142 51.3105 41.674 51.3105Z" fill="#19191A" fill-opacity="1.000000" transform="matrix(1 0 0 1 1106.81 569.419)"/></g><path d="M84 42C84 65.196 65.196 84 42 84C18.804 84 0 65.196 0 42C0 18.804 18.804 0 42 0C65.196 0 84 18.804 84 42" fill="#D5FFEC" fill-opacity="1.000000" transform="matrix(1 0 0 1 1106.81 802.419)"/><path d="M84 42C84 65.196 65.196 84 42 84C18.804 84 0 65.196 0 42C0 18.804 18.804 0 42 0C65.196 0 84 18.804 84 42" fill="none" stroke="#19191A" stroke-opacity="1.000000" stroke-width="2" stroke-dasharray="0 0" transform="matrix(1 0 0 1 1106.81 802.419)"/><clipPath id="clip_1_171_0"><path d="M1118.81 826.419L1178.81 826.419L1178.81 886.419L1118.81 886.419L1118.81 826.419Z"/></clipPath><g clip-path="url(#clip_1_171_0)"><path d="M38.0998 44.4023L42.1076 38.4023C42.6115 37.5352 43.092 36.6738 43.5256 35.8066L43.6193 35.8066C43.5724 36.7207 43.4787 38.1387 43.4787 39L43.4787 44.4023L38.0998 44.4023ZM47.8908 44.4023L45.5646 44.4023L45.5646 33.4102L43.1388 33.4102L35.8205 44.7129L35.8205 46.1543L43.4787 46.1543L43.4787 51L45.5646 51L45.5646 46.1543L47.8908 46.1543L47.8908 44.4023Z" fill="#19191A" fill-opacity="1.000000" transform="matrix(1 0 0 1 1106.81 802.419)"/></g><path d="M84 42C84 65.196 65.196 84 42 84C18.804 84 0 65.196 0 42C0 18.804 18.804 0 42 0C65.196 0 84 18.804 84 42" fill="#ADDCFF" fill-opacity="1.000000" transform="matrix(1 0 0 1 1267.81 696.419)"/><path d="M84 42C84 65.196 65.196 84 42 84C18.804 84 0 65.196 0 42C0 18.804 18.804 0 42 0C65.196 0 84 18.804 84 42" fill="none" stroke="#19191A" stroke-opacity="1.000000" stroke-width="2" stroke-dasharray="0 0" transform="matrix(1 0 0 1 1267.81 696.419)"/><clipPath id="clip_1_172_0"><path d="M1279.81 720.419L1339.81 720.419L1339.81 780.419L1279.81 780.419L1279.81 720.419Z"/></clipPath><g clip-path="url(#clip_1_172_0)"><path d="M41.6037 51.3105C44.5803 51.3105 47.3635 49.1309 47.3635 45.2637C47.3635 41.4023 44.9904 39.6738 42.0607 39.6738C41.006 39.6738 40.2092 39.9375 39.4416 40.3652L39.8752 35.2793L46.5256 35.2793L46.5256 33.4102L37.9533 33.4102L37.4025 41.6426L38.5803 42.3574C39.5881 41.6895 40.3322 41.3262 41.5099 41.3262C43.7189 41.3262 45.1545 42.8145 45.1545 45.334C45.1545 47.9062 43.4787 49.4883 41.4103 49.4883C39.3713 49.4883 38.0998 48.5508 37.092 47.543L36.0138 48.9844C37.1857 50.1621 38.8674 51.3105 41.6037 51.3105Z" fill="#19191A" fill-opacity="1.000000" transform="matrix(1 0 0 1 1267.81 696.419)"/></g><path d="M0 0L80.0118 -126.339" fill="none" stroke="#19191A" stroke-opacity="1.000000" stroke-width="2" stroke-linejoin="round" stroke-dasharray="0 0" transform="matrix(1 0 0 1 791.798 737.758)"/><path d="M0 0L86 105" fill="none" stroke="#19191A" stroke-opacity="1.000000" stroke-width="2" stroke-linejoin="round" stroke-dasharray="0 0" transform="matrix(1 0 0 1 791.81 739.419)"/><path d="M0 0L153.403 -0.0550327" fill="none" stroke="#19191A" stroke-opacity="1.000000" stroke-width="2" stroke-linejoin="round" stroke-dasharray="0 0" transform="matrix(1 0 0 1 957.595 862.779)"/><path d="M0 0L77 -103.634" fill="none" stroke="#19191A" stroke-opacity="1.000000" stroke-width="2" stroke-linejoin="round" stroke-dasharray="0 0" transform="matrix(1 0 0 1 1190.81 845.053)"/><path d="M0 0L77.0161 128.165" fill="none" stroke="#19191A" stroke-opacity="1.000000" stroke-width="2" stroke-linejoin="round" stroke-dasharray="0 0" transform="matrix(1 0 0 1 1190.81 611.419)"/><path d="M0 0L158.764 1.36981" fill="none" stroke="#19191A" stroke-opacity="1.000000" stroke-width="2" stroke-linejoin="round" stroke-dasharray="0 0" transform="matrix(1 0 0 1 951.61 593.091)"/><path d="M0 0L177.037 172.325" fill="none" stroke="#19191A" stroke-opacity="1.000000" stroke-width="2" stroke-linejoin="round" stroke-dasharray="0 0" transform="matrix(1 0 0 1 941.395 643.092)"/><path d="M0 0L0 149" fill="none" stroke="#19191A" stroke-opacity="1.000000" stroke-width="2" stroke-linejoin="round" stroke-dasharray="0 0" transform="matrix(1 0 0 1 1148.81 653.419)"/><path d="M2.75977 20.4023L6.76758 14.4023C7.27148 13.5352 7.75195 12.6738 8.18555 11.8066L8.2793 11.8066C8.23242 12.7207 8.13867 14.1387 8.13867 15L8.13867 20.4023L2.75977 20.4023ZM12.5508 20.4023L10.2246 20.4023L10.2246 9.41016L7.79883 9.41016L0.480469 20.7129L0.480469 22.1543L8.13867 22.1543L8.13867 27L10.2246 27L10.2246 22.1543L12.5508 22.1543L12.5508 20.4023Z" fill="#19191A" fill-opacity="1.000000" transform="matrix(0.538391 -0.842695 0.842707 0.538372 799.871 662.598)"/><path d="M6.33398 27.3105C9.45703 27.3105 11.9766 25.4414 11.9766 22.2949C11.9766 19.8984 10.3184 18.3105 8.23242 17.8301L8.23242 17.7363C10.1016 17.0391 11.3789 15.6211 11.3789 13.4883C11.3789 10.6582 9.2168 9.07031 6.26367 9.07031C4.22461 9.07031 2.66602 9.96094 1.3418 11.1855L2.51953 12.5742C3.50391 11.5898 4.75195 10.8691 6.16992 10.8223C7.99219 10.8691 9.14648 11.9531 9.14648 13.6582C9.14648 15.5508 7.89844 17.0156 4.27148 17.0156L4.27148 18.6973C8.32617 18.6973 9.74414 20.1094 9.74414 22.2246C9.74414 24.2402 8.25586 25.4883 6.16992 25.4883C4.17773 25.4883 2.83008 24.5508 1.79883 23.4727L0.697266 24.9141C1.8457 26.1621 3.57422 27.3105 6.33398 27.3105Z" fill="#19191A" fill-opacity="1.000000" transform="matrix(0.707107 0.707107 -0.707085 0.707128 1048.27 688.256)"/><path d="M1.05469 27L12.1172 27L12.1172 25.1016L7.24805 25.1016C6.35742 25.1016 5.2793 25.2012 4.36523 25.2715C8.49609 21.3574 11.2559 17.7832 11.2559 14.2793C11.2559 11.1387 9.28711 9.07031 6.14648 9.07031C3.91406 9.07031 2.40234 10.1016 0.960938 11.666L2.23242 12.9141C3.19336 11.7598 4.44141 10.8691 5.88281 10.8691C8.0625 10.8691 9.11719 12.334 9.11719 14.3496C9.11719 17.3789 6.57422 20.8828 1.05469 25.7051L1.05469 27Z" fill="#19191A" fill-opacity="1.000000" transform="matrix(0.604387 0.796691 -0.796669 0.604415 861.902 759.479)"/><path d="M2.10938 27L11.7598 27L11.7598 25.1777L8.23242 25.1777L8.23242 9.41016L6.55078 9.41016C5.58984 9.96094 4.46484 10.3652 2.90625 10.6582L2.90625 12.0469L6.02344 12.0469L6.02344 25.1777L2.10938 25.1777L2.10938 27Z" fill="#19191A" fill-opacity="1.000000" transform="matrix(0.514353 0.857579 -0.857565 0.514376 1263.88 649.392)"/><path d="M1.05469 27L12.1172 27L12.1172 25.1016L7.24805 25.1016C6.35742 25.1016 5.2793 25.2012 4.36523 25.2715C8.49609 21.3574 11.2559 17.7832 11.2559 14.2793C11.2559 11.1387 9.28711 9.07031 6.14648 9.07031C3.91406 9.07031 2.40234 10.1016 0.960938 11.666L2.23242 12.9141C3.19336 11.7598 4.44141 10.8691 5.88281 10.8691C8.0625 10.8691 9.11719 12.334 9.11719 14.3496C9.11719 17.3789 6.57422 20.8828 1.05469 25.7051L1.05469 27Z" fill="#19191A" fill-opacity="1.000000" transform="matrix(1 0 -5.6514e-07 1 1016.12 555.919)"/><path d="M1.05469 27L12.1172 27L12.1172 25.1016L7.24805 25.1016C6.35742 25.1016 5.2793 25.2012 4.36523 25.2715C8.49609 21.3574 11.2559 17.7832 11.2559 14.2793C11.2559 11.1387 9.28711 9.07031 6.14648 9.07031C3.91406 9.07031 2.40234 10.1016 0.960938 11.666L2.23242 12.9141C3.19336 11.7598 4.44141 10.8691 5.88281 10.8691C8.0625 10.8691 9.11719 12.334 9.11719 14.3496C9.11719 17.3789 6.57422 20.8828 1.05469 25.7051L1.05469 27Z" fill="#19191A" fill-opacity="1.000000" transform="matrix(1 0 -1.27157e-06 1 1025.31 832.149)"/><path d="M2.10938 27L11.7598 27L11.7598 25.1777L8.23242 25.1777L8.23242 9.41016L6.55078 9.41016C5.58984 9.96094 4.46484 10.3652 2.90625 10.6582L2.90625 12.0469L6.02344 12.0469L6.02344 25.1777L2.10938 25.1777L2.10938 27Z" fill="#19191A" fill-opacity="1.000000" transform="matrix(0.620615 -0.784116 0.784111 0.62062 1193.25 783.156)"/><path d="M6.67383 27.3105C10.0078 27.3105 12.1465 24.2637 12.1465 18.1465C12.1465 12.0469 10.0078 9.07031 6.67383 9.07031C3.31055 9.07031 1.17773 12.0234 1.17773 18.1465C1.17773 24.2637 3.31055 27.3105 6.67383 27.3105ZM6.67383 25.5586C4.6582 25.5586 3.31055 23.3262 3.31055 18.1465C3.31055 13.0078 4.6582 10.8457 6.67383 10.8457C8.66602 10.8457 10.0078 13.0078 10.0078 18.1465C10.0078 23.3262 8.66602 25.5586 6.67383 25.5586Z" fill="#ED1252" fill-opacity="1.000000" transform="matrix(1 0 0 1 742.097 652.492)"/><path d="M15.9474 20.4023L19.9552 14.4023C20.4591 13.5352 20.9396 12.6738 21.3732 11.8066L21.467 11.8066C21.4201 12.7207 21.3263 14.1387 21.3263 15L21.3263 20.4023L15.9474 20.4023ZM25.7384 20.4023L23.4123 20.4023L23.4123 9.41016L20.9865 9.41016L13.6681 20.7129L13.6681 22.1543L21.3263 22.1543L21.3263 27L23.4123 27L23.4123 22.1543L25.7384 22.1543L25.7384 20.4023Z" fill="#ED1252" fill-opacity="1.000000" transform="matrix(1 0 0 1 891.922 519.919)"/><path d="M14.2423 27L25.3048 27L25.3048 25.1016L20.4357 25.1016C19.5451 25.1016 18.467 25.2012 17.5529 25.2715C21.6838 21.3574 24.4435 17.7832 24.4435 14.2793C24.4435 11.1387 22.4748 9.07031 19.3341 9.07031C17.1017 9.07031 15.59 10.1016 14.1486 11.666L15.4201 12.9141C16.381 11.7598 17.6291 10.8691 19.0705 10.8691C21.2502 10.8691 22.3048 12.334 22.3048 14.3496C22.3048 17.3789 19.7619 20.8828 14.2423 25.7051L14.2423 27Z" fill="#ED1252" fill-opacity="1.000000" transform="matrix(1 0 0 1 898.963 886.131)"/><path d="M19.4513 27.3105C22.4279 27.3105 25.2111 25.1309 25.2111 21.2637C25.2111 17.4023 22.8381 15.6738 19.9084 15.6738C18.8537 15.6738 18.0568 15.9375 17.2892 16.3652L17.7228 11.2793L24.3732 11.2793L24.3732 9.41016L15.8009 9.41016L15.2502 17.6426L16.4279 18.3574C17.4357 17.6895 18.1798 17.3262 19.3576 17.3262C21.5666 17.3262 23.0021 18.8145 23.0021 21.334C23.0021 23.9062 21.3263 25.4883 19.258 25.4883C17.2189 25.4883 15.9474 24.5508 14.9396 23.543L13.8615 24.9844C15.0334 26.1621 16.715 27.3105 19.4513 27.3105Z" fill="#43ABFF" fill-opacity="1.000000" transform="matrix(1 0 0 1 1128.96 524.904)"/><path d="M15.9474 20.4023L19.9552 14.4023C20.4591 13.5352 20.9396 12.6738 21.3732 11.8066L21.467 11.8066C21.4201 12.7207 21.3263 14.1387 21.3263 15L21.3263 20.4023L15.9474 20.4023ZM25.7384 20.4023L23.4123 20.4023L23.4123 9.41016L20.9865 9.41016L13.6681 20.7129L13.6681 22.1543L21.3263 22.1543L21.3263 27L23.4123 27L23.4123 22.1543L25.7384 22.1543L25.7384 20.4023Z" fill="#00C691" fill-opacity="1.000000" transform="matrix(1 0 0 1 1132.21 890.26)"/><path d="M19.4513 27.3105C22.4279 27.3105 25.2111 25.1309 25.2111 21.2637C25.2111 17.4023 22.8381 15.6738 19.9084 15.6738C18.8537 15.6738 18.0568 15.9375 17.2892 16.3652L17.7228 11.2793L24.3732 11.2793L24.3732 9.41016L15.8009 9.41016L15.2502 17.6426L16.4279 18.3574C17.4357 17.6895 18.1798 17.3262 19.3576 17.3262C21.5666 17.3262 23.0021 18.8145 23.0021 21.334C23.0021 23.9062 21.3263 25.4883 19.258 25.4883C17.2189 25.4883 15.9474 24.5508 14.9396 23.543L13.8615 24.9844C15.0334 26.1621 16.715 27.3105 19.4513 27.3105Z" fill="#43ABFF" fill-opacity="1.000000" transform="matrix(1 0 0 1 1293.54 653.131)"/><path d="M2.10938 27L11.7598 27L11.7598 25.1777L8.23242 25.1777L8.23242 9.41016L6.55078 9.41016C5.58984 9.96094 4.46484 10.3652 2.90625 10.6582L2.90625 12.0469L6.02344 12.0469L6.02344 25.1777L2.10938 25.1777L2.10938 27Z" fill="#000000" fill-opacity="1.000000" transform="matrix(-0.0148937 0.999889 -0.999889 -0.0148976 510.061 204.542)"/><path d="M2.10938 27L11.7598 27L11.7598 25.1777L8.23242 25.1777L8.23242 9.41016L6.55078 9.41016C5.58984 9.96094 4.46484 10.3652 2.90625 10.6582L2.90625 12.0469L6.02344 12.0469L6.02344 25.1777L2.10938 25.1777L2.10938 27Z" fill="#000000" fill-opacity="1.000000" transform="matrix(-0.0148937 0.999889 -0.999889 -0.0148997 499.166 713.381)"/><path d="M2.10938 27L11.7598 27L11.7598 25.1777L8.23242 25.1777L8.23242 9.41016L6.55078 9.41016C5.58984 9.96094 4.46484 10.3652 2.90625 10.6582L2.90625 12.0469L6.02344 12.0469L6.02344 25.1777L2.10938 25.1777L2.10938 27Z" fill="#000000" fill-opacity="1.000000" transform="matrix(-0.0148937 0.999889 -0.999889 -0.0148836 1190.81 714.548)"/><path d="M2.10938 27L11.7598 27L11.7598 25.1777L8.23242 25.1777L8.23242 9.41016L6.55078 9.41016C5.58984 9.96094 4.46484 10.3652 2.90625 10.6582L2.90625 12.0469L6.02344 12.0469L6.02344 25.1777L2.10938 25.1777L2.10938 27Z" fill="#000000" fill-opacity="1.000000" transform="matrix(-0.0148937 0.999889 -0.999889 -0.0149073 1195.83 202.505)"/><path d="M2.10938 27L11.7598 27L11.7598 25.1777L8.23242 25.1777L8.23242 9.41016L6.55078 9.41016C5.58984 9.96094 4.46484 10.3652 2.90625 10.6582L2.90625 12.0469L6.02344 12.0469L6.02344 25.1777L2.10938 25.1777L2.10938 27Z" fill="#000000" fill-opacity="1.000000" transform="matrix(-0.0148937 0.999889 -0.999889 -0.0149209 1876.46 206.671)"/><path d="M84 42C84 65.196 65.196 84 42 84C18.804 84 0 65.196 0 42C0 18.804 18.804 0 42 0C65.196 0 84 18.804 84 42" fill="#FEC5B8" fill-opacity="1.000000" transform="matrix(1 0 0 1 1555.02 569.419)"/><path d="M84 42C84 65.196 65.196 84 42 84C18.804 84 0 65.196 0 42C0 18.804 18.804 0 42 0C65.196 0 84 18.804 84 42" fill="none" stroke="#19191A" stroke-opacity="1.000000" stroke-width="2" stroke-dasharray="0 0" transform="matrix(1 0 0 1 1555.02 569.419)"/><clipPath id="clip_1_199_0"><path d="M1567.02 593.419L1627.02 593.419L1627.02 653.419L1567.02 653.419L1567.02 593.419Z"/></clipPath><g clip-path="url(#clip_1_199_0)"><path d="M37.4494 51L47.0998 51L47.0998 49.1777L43.5724 49.1777L43.5724 33.4102L41.8908 33.4102C40.9299 33.9609 39.8049 34.3652 38.2463 34.6582L38.2463 36.0469L41.3635 36.0469L41.3635 49.1777L37.4494 49.1777L37.4494 51Z" fill="#19191A" fill-opacity="1.000000" transform="matrix(1 0 0 1 1555.02 569.419)"/></g><path d="M84 42C84 65.196 65.196 84 42 84C18.804 84 0 65.196 0 42C0 18.804 18.804 0 42 0C65.196 0 84 18.804 84 42" fill="#FEC5B8" fill-opacity="1.000000" transform="matrix(1 0 0 1 1391.02 695.378)"/><path d="M84 42C84 65.196 65.196 84 42 84C18.804 84 0 65.196 0 42C0 18.804 18.804 0 42 0C65.196 0 84 18.804 84 42" fill="none" stroke="#19191A" stroke-opacity="1.000000" stroke-width="2" stroke-dasharray="0 0" transform="matrix(1 0 0 1 1391.02 695.378)"/><clipPath id="clip_1_200_0"><path d="M1403.02 719.378L1463.02 719.378L1463.02 779.378L1403.02 779.378L1403.02 719.378Z"/></clipPath><g clip-path="url(#clip_1_200_0)"><path d="M42.0138 51.3105C45.3478 51.3105 47.4865 48.2637 47.4865 42.1465C47.4865 36.0469 45.3478 33.0703 42.0138 33.0703C38.6506 33.0703 36.5178 36.0234 36.5178 42.1465C36.5178 48.2637 38.6506 51.3105 42.0138 51.3105ZM42.0138 49.5586C39.9982 49.5586 38.6506 47.3262 38.6506 42.1465C38.6506 37.0078 39.9982 34.8457 42.0138 34.8457C44.006 34.8457 45.3478 37.0078 45.3478 42.1465C45.3478 47.3262 44.006 49.5586 42.0138 49.5586Z" fill="#19191A" fill-opacity="1.000000" transform="matrix(1 0 0 1 1391.02 695.378)"/></g><path d="M84 42C84 65.196 65.196 84 42 84C18.804 84 0 65.196 0 42C0 18.804 18.804 0 42 0C65.196 0 84 18.804 84 42" fill="#FEC5B8" fill-opacity="1.000000" transform="matrix(1 0 0 1 1561.02 802.419)"/><path d="M84 42C84 65.196 65.196 84 42 84C18.804 84 0 65.196 0 42C0 18.804 18.804 0 42 0C65.196 0 84 18.804 84 42" fill="none" stroke="#19191A" stroke-opacity="1.000000" stroke-width="2" stroke-dasharray="0 0" transform="matrix(1 0 0 1 1561.02 802.419)"/><clipPath id="clip_1_201_0"><path d="M1573.02 826.419L1633.02 826.419L1633.02 886.419L1573.02 886.419L1573.02 826.419Z"/></clipPath><g clip-path="url(#clip_1_201_0)"><path d="M36.3947 51L47.4572 51L47.4572 49.1016L42.5881 49.1016C41.6974 49.1016 40.6193 49.2012 39.7053 49.2715C43.8361 45.3574 46.5959 41.7832 46.5959 38.2793C46.5959 35.1387 44.6271 33.0703 41.4865 33.0703C39.2541 33.0703 37.7424 34.1016 36.301 35.666L37.5724 36.9141C38.5334 35.7598 39.7814 34.8691 41.2228 34.8691C43.4025 34.8691 44.4572 36.334 44.4572 38.3496C44.4572 41.3789 41.9142 44.8828 36.3947 49.7051L36.3947 51Z" fill="#19191A" fill-opacity="1.000000" transform="matrix(1 0 0 1 1561.02 802.419)"/></g><path d="M84 42C84 65.196 65.196 84 42 84C18.804 84 0 65.196 0 42C0 18.804 18.804 0 42 0C65.196 0 84 18.804 84 42" fill="#D5FFEC" fill-opacity="1.000000" transform="matrix(1 0 0 1 1790.02 569.419)"/><path d="M84 42C84 65.196 65.196 84 42 84C18.804 84 0 65.196 0 42C0 18.804 18.804 0 42 0C65.196 0 84 18.804 84 42" fill="none" stroke="#19191A" stroke-opacity="1.000000" stroke-width="2" stroke-dasharray="0 0" transform="matrix(1 0 0 1 1790.02 569.419)"/><clipPath id="clip_1_202_0"><path d="M1802.02 593.419L1862.02 593.419L1862.02 653.419L1802.02 653.419L1802.02 593.419Z"/></clipPath><g clip-path="url(#clip_1_202_0)"><path d="M41.674 51.3105C44.7971 51.3105 47.3166 49.4414 47.3166 46.2949C47.3166 43.8984 45.6584 42.3105 43.5724 41.8301L43.5724 41.7363C45.4416 41.0391 46.7189 39.6211 46.7189 37.4883C46.7189 34.6582 44.5568 33.0703 41.6037 33.0703C39.5646 33.0703 38.006 33.9609 36.6818 35.1855L37.8596 36.5742C38.8439 35.5898 40.092 34.8691 41.5099 34.8223C43.3322 34.8691 44.4865 35.9531 44.4865 37.6582C44.4865 39.5508 43.2385 41.0156 39.6115 41.0156L39.6115 42.6973C43.6662 42.6973 45.0842 44.1094 45.0842 46.2246C45.0842 48.2402 43.5959 49.4883 41.5099 49.4883C39.5178 49.4883 38.1701 48.5508 37.1388 47.4727L36.0373 48.9141C37.1857 50.1621 38.9142 51.3105 41.674 51.3105Z" fill="#19191A" fill-opacity="1.000000" transform="matrix(1 0 0 1 1790.02 569.419)"/></g><path d="M84 42C84 65.196 65.196 84 42 84C18.804 84 0 65.196 0 42C0 18.804 18.804 0 42 0C65.196 0 84 18.804 84 42" fill="#FEC5B8" fill-opacity="1.000000" transform="matrix(1 0 0 1 1790.02 802.419)"/><path d="M84 42C84 65.196 65.196 84 42 84C18.804 84 0 65.196 0 42C0 18.804 18.804 0 42 0C65.196 0 84 18.804 84 42" fill="none" stroke="#19191A" stroke-opacity="1.000000" stroke-width="2" stroke-dasharray="0 0" transform="matrix(1 0 0 1 1790.02 802.419)"/><clipPath id="clip_1_203_0"><path d="M1802.02 826.419L1862.02 826.419L1862.02 886.419L1802.02 886.419L1802.02 826.419Z"/></clipPath><g clip-path="url(#clip_1_203_0)"><path d="M38.0998 44.4023L42.1076 38.4023C42.6115 37.5352 43.092 36.6738 43.5256 35.8066L43.6193 35.8066C43.5724 36.7207 43.4787 38.1387 43.4787 39L43.4787 44.4023L38.0998 44.4023ZM47.8908 44.4023L45.5646 44.4023L45.5646 33.4102L43.1388 33.4102L35.8205 44.7129L35.8205 46.1543L43.4787 46.1543L43.4787 51L45.5646 51L45.5646 46.1543L47.8908 46.1543L47.8908 44.4023Z" fill="#19191A" fill-opacity="1.000000" transform="matrix(1 0 0 1 1790.02 802.419)"/></g><path d="M84 42C84 65.196 65.196 84 42 84C18.804 84 0 65.196 0 42C0 18.804 18.804 0 42 0C65.196 0 84 18.804 84 42" fill="#ADDCFF" fill-opacity="1.000000" transform="matrix(1 0 0 1 1951.02 696.419)"/><path d="M84 42C84 65.196 65.196 84 42 84C18.804 84 0 65.196 0 42C0 18.804 18.804 0 42 0C65.196 0 84 18.804 84 42" fill="none" stroke="#19191A" stroke-opacity="1.000000" stroke-width="2" stroke-dasharray="0 0" transform="matrix(1 0 0 1 1951.02 696.419)"/><clipPath id="clip_1_204_0"><path d="M1963.02 720.419L2023.02 720.419L2023.02 780.419L1963.02 780.419L1963.02 720.419Z"/></clipPath><g clip-path="url(#clip_1_204_0)"><path d="M41.6037 51.3105C44.5803 51.3105 47.3635 49.1309 47.3635 45.2637C47.3635 41.4023 44.9904 39.6738 42.0607 39.6738C41.006 39.6738 40.2092 39.9375 39.4416 40.3652L39.8752 35.2793L46.5256 35.2793L46.5256 33.4102L37.9533 33.4102L37.4025 41.6426L38.5803 42.3574C39.5881 41.6895 40.3322 41.3262 41.5099 41.3262C43.7189 41.3262 45.1545 42.8145 45.1545 45.334C45.1545 47.9062 43.4787 49.4883 41.4103 49.4883C39.3713 49.4883 38.0998 48.5508 37.092 47.543L36.0138 48.9844C37.1857 50.1621 38.8674 51.3105 41.6037 51.3105Z" fill="#19191A" fill-opacity="1.000000" transform="matrix(1 0 0 1 1951.02 696.419)"/></g><path d="M0 0L80.0118 -126.339" fill="none" stroke="#19191A" stroke-opacity="1.000000" stroke-width="2" stroke-linejoin="round" stroke-dasharray="0 0" transform="matrix(1 0 0 1 1475.01 737.758)"/><path d="M0 0L86 105" fill="none" stroke="#19191A" stroke-opacity="1.000000" stroke-width="2" stroke-linejoin="round" stroke-dasharray="0 0" transform="matrix(1 0 0 1 1475.02 739.419)"/><path d="M0 0L153.403 -0.0550346" fill="none" stroke="#19191A" stroke-opacity="1.000000" stroke-width="2" stroke-linejoin="round" stroke-dasharray="0 0" transform="matrix(1 0 0 1 1640.81 862.779)"/><path d="M0 0L77 -103.634" fill="none" stroke="#19191A" stroke-opacity="1.000000" stroke-width="2" stroke-linejoin="round" stroke-dasharray="0 0" transform="matrix(1 0 0 1 1874.02 845.053)"/><path d="M0 0L77.0161 128.165" fill="none" stroke="#19191A" stroke-opacity="1.000000" stroke-width="2" stroke-linejoin="round" stroke-dasharray="0 0" transform="matrix(1 0 0 1 1874.02 611.419)"/><path d="M0 0L158.764 1.36978" fill="none" stroke="#19191A" stroke-opacity="1.000000" stroke-width="2" stroke-linejoin="round" stroke-dasharray="0 0" transform="matrix(1 0 0 1 1634.82 593.091)"/><path d="M0 0L177.037 172.325" fill="none" stroke="#19191A" stroke-opacity="1.000000" stroke-width="2" stroke-linejoin="round" stroke-dasharray="0 0" transform="matrix(1 0 0 1 1624.61 643.091)"/><path d="M0 0L0 149" fill="none" stroke="#19191A" stroke-opacity="1.000000" stroke-width="2" stroke-linejoin="round" stroke-dasharray="0 0" transform="matrix(1 0 0 1 1832.02 653.419)"/><path d="M2.75977 20.4023L6.76758 14.4023C7.27148 13.5352 7.75195 12.6738 8.18555 11.8066L8.2793 11.8066C8.23242 12.7207 8.13867 14.1387 8.13867 15L8.13867 20.4023L2.75977 20.4023ZM12.5508 20.4023L10.2246 20.4023L10.2246 9.41016L7.79883 9.41016L0.480469 20.7129L0.480469 22.1543L8.13867 22.1543L8.13867 27L10.2246 27L10.2246 22.1543L12.5508 22.1543L12.5508 20.4023Z" fill="#19191A" fill-opacity="1.000000" transform="matrix(0.538391 -0.842695 0.842705 0.538375 1483.08 662.598)"/><path d="M6.33398 27.3105C9.45703 27.3105 11.9766 25.4414 11.9766 22.2949C11.9766 19.8984 10.3184 18.3105 8.23242 17.8301L8.23242 17.7363C10.1016 17.0391 11.3789 15.6211 11.3789 13.4883C11.3789 10.6582 9.2168 9.07031 6.26367 9.07031C4.22461 9.07031 2.66602 9.96094 1.3418 11.1855L2.51953 12.5742C3.50391 11.5898 4.75195 10.8691 6.16992 10.8223C7.99219 10.8691 9.14648 11.9531 9.14648 13.6582C9.14648 15.5508 7.89844 17.0156 4.27148 17.0156L4.27148 18.6973C8.32617 18.6973 9.74414 20.1094 9.74414 22.2246C9.74414 24.2402 8.25586 25.4883 6.16992 25.4883C4.17773 25.4883 2.83008 24.5508 1.79883 23.4727L0.697266 24.9141C1.8457 26.1621 3.57422 27.3105 6.33398 27.3105Z" fill="#19191A" fill-opacity="1.000000" transform="matrix(0.707107 0.707107 -0.707088 0.707126 1731.48 688.256)"/><path d="M1.05469 27L12.1172 27L12.1172 25.1016L7.24805 25.1016C6.35742 25.1016 5.2793 25.2012 4.36523 25.2715C8.49609 21.3574 11.2559 17.7832 11.2559 14.2793C11.2559 11.1387 9.28711 9.07031 6.14648 9.07031C3.91406 9.07031 2.40234 10.1016 0.960938 11.666L2.23242 12.9141C3.19336 11.7598 4.44141 10.8691 5.88281 10.8691C8.0625 10.8691 9.11719 12.334 9.11719 14.3496C9.11719 17.3789 6.57422 20.8828 1.05469 25.7051L1.05469 27Z" fill="#19191A" fill-opacity="1.000000" transform="matrix(0.604388 0.79669 -0.796658 0.604431 1545.11 759.479)"/><path d="M2.10938 27L11.7598 27L11.7598 25.1777L8.23242 25.1777L8.23242 9.41016L6.55078 9.41016C5.58984 9.96094 4.46484 10.3652 2.90625 10.6582L2.90625 12.0469L6.02344 12.0469L6.02344 25.1777L2.10938 25.1777L2.10938 27Z" fill="#19191A" fill-opacity="1.000000" transform="matrix(0.514353 0.857579 -0.857572 0.514364 1947.09 649.392)"/><path d="M1.05469 27L12.1172 27L12.1172 25.1016L7.24805 25.1016C6.35742 25.1016 5.2793 25.2012 4.36523 25.2715C8.49609 21.3574 11.2559 17.7832 11.2559 14.2793C11.2559 11.1387 9.28711 9.07031 6.14648 9.07031C3.91406 9.07031 2.40234 10.1016 0.960938 11.666L2.23242 12.9141C3.19336 11.7598 4.44141 10.8691 5.88281 10.8691C8.0625 10.8691 9.11719 12.334 9.11719 14.3496C9.11719 17.3789 6.57422 20.8828 1.05469 25.7051L1.05469 27Z" fill="#19191A" fill-opacity="1.000000" transform="matrix(1 0 -5.6514e-07 1 1699.33 555.919)"/><path d="M1.05469 27L12.1172 27L12.1172 25.1016L7.24805 25.1016C6.35742 25.1016 5.2793 25.2012 4.36523 25.2715C8.49609 21.3574 11.2559 17.7832 11.2559 14.2793C11.2559 11.1387 9.28711 9.07031 6.14648 9.07031C3.91406 9.07031 2.40234 10.1016 0.960938 11.666L2.23242 12.9141C3.19336 11.7598 4.44141 10.8691 5.88281 10.8691C8.0625 10.8691 9.11719 12.334 9.11719 14.3496C9.11719 17.3789 6.57422 20.8828 1.05469 25.7051L1.05469 27Z" fill="#19191A" fill-opacity="1.000000" transform="matrix(1 0 -1.27157e-06 1 1708.52 832.149)"/><path d="M2.10938 27L11.7598 27L11.7598 25.1777L8.23242 25.1777L8.23242 9.41016L6.55078 9.41016C5.58984 9.96094 4.46484 10.3652 2.90625 10.6582L2.90625 12.0469L6.02344 12.0469L6.02344 25.1777L2.10938 25.1777L2.10938 27Z" fill="#19191A" fill-opacity="1.000000" transform="matrix(0.620615 -0.784116 0.784111 0.62062 1876.46 783.156)"/><path d="M6.67383 27.3105C10.0078 27.3105 12.1465 24.2637 12.1465 18.1465C12.1465 12.0469 10.0078 9.07031 6.67383 9.07031C3.31055 9.07031 1.17773 12.0234 1.17773 18.1465C1.17773 24.2637 3.31055 27.3105 6.67383 27.3105ZM6.67383 25.5586C4.6582 25.5586 3.31055 23.3262 3.31055 18.1465C3.31055 13.0078 4.6582 10.8457 6.67383 10.8457C8.66602 10.8457 10.0078 13.0078 10.0078 18.1465C10.0078 23.3262 8.66602 25.5586 6.67383 25.5586Z" fill="#ED1252" fill-opacity="1.000000" transform="matrix(1 0 0 1 1425.31 652.492)"/><path d="M15.9474 20.4023L19.9552 14.4023C20.4591 13.5352 20.9396 12.6738 21.3732 11.8066L21.467 11.8066C21.4201 12.7207 21.3263 14.1387 21.3263 15L21.3263 20.4023L15.9474 20.4023ZM25.7384 20.4023L23.4123 20.4023L23.4123 9.41016L20.9865 9.41016L13.6681 20.7129L13.6681 22.1543L21.3263 22.1543L21.3263 27L23.4123 27L23.4123 22.1543L25.7384 22.1543L25.7384 20.4023Z" fill="#ED1252" fill-opacity="1.000000" transform="matrix(1 0 0 1 1575.13 519.919)"/><path d="M14.2423 27L25.3048 27L25.3048 25.1016L20.4357 25.1016C19.5451 25.1016 18.467 25.2012 17.5529 25.2715C21.6838 21.3574 24.4435 17.7832 24.4435 14.2793C24.4435 11.1387 22.4748 9.07031 19.3341 9.07031C17.1017 9.07031 15.59 10.1016 14.1486 11.666L15.4201 12.9141C16.381 11.7598 17.6291 10.8691 19.0705 10.8691C21.2502 10.8691 22.3048 12.334 22.3048 14.3496C22.3048 17.3789 19.7619 20.8828 14.2423 25.7051L14.2423 27Z" fill="#ED1252" fill-opacity="1.000000" transform="matrix(1 0 0 1 1582.17 886.131)"/><path d="M19.4513 27.3105C22.4279 27.3105 25.2111 25.1309 25.2111 21.2637C25.2111 17.4023 22.8381 15.6738 19.9084 15.6738C18.8537 15.6738 18.0568 15.9375 17.2892 16.3652L17.7228 11.2793L24.3732 11.2793L24.3732 9.41016L15.8009 9.41016L15.2502 17.6426L16.4279 18.3574C17.4357 17.6895 18.1798 17.3262 19.3576 17.3262C21.5666 17.3262 23.0021 18.8145 23.0021 21.334C23.0021 23.9062 21.3263 25.4883 19.258 25.4883C17.2189 25.4883 15.9474 24.5508 14.9396 23.543L13.8615 24.9844C15.0334 26.1621 16.715 27.3105 19.4513 27.3105Z" fill="#00C691" fill-opacity="1.000000" transform="matrix(1 0 0 1 1812.17 524.904)"/><path d="M15.9474 20.4023L19.9552 14.4023C20.4591 13.5352 20.9396 12.6738 21.3732 11.8066L21.467 11.8066C21.4201 12.7207 21.3263 14.1387 21.3263 15L21.3263 20.4023L15.9474 20.4023ZM25.7384 20.4023L23.4123 20.4023L23.4123 9.41016L20.9865 9.41016L13.6681 20.7129L13.6681 22.1543L21.3263 22.1543L21.3263 27L23.4123 27L23.4123 22.1543L25.7384 22.1543L25.7384 20.4023Z" fill="#ED1252" fill-opacity="1.000000" transform="matrix(1 0 0 1 1815.42 890.26)"/><path d="M19.4513 27.3105C22.4279 27.3105 25.2111 25.1309 25.2111 21.2637C25.2111 17.4023 22.8381 15.6738 19.9084 15.6738C18.8537 15.6738 18.0568 15.9375 17.2892 16.3652L17.7228 11.2793L24.3732 11.2793L24.3732 9.41016L15.8009 9.41016L15.2502 17.6426L16.4279 18.3574C17.4357 17.6895 18.1798 17.3262 19.3576 17.3262C21.5666 17.3262 23.0021 18.8145 23.0021 21.334C23.0021 23.9062 21.3263 25.4883 19.258 25.4883C17.2189 25.4883 15.9474 24.5508 14.9396 23.543L13.8615 24.9844C15.0334 26.1621 16.715 27.3105 19.4513 27.3105Z" fill="#43ABFF" fill-opacity="1.000000" transform="matrix(1 0 0 1 1976.75 653.131)"/><path d="M2.10938 27L11.7598 27L11.7598 25.1777L8.23242 25.1777L8.23242 9.41016L6.55078 9.41016C5.58984 9.96094 4.46484 10.3652 2.90625 10.6582L2.90625 12.0469L6.02344 12.0469L6.02344 25.1777L2.10938 25.1777L2.10938 27Z" fill="#000000" fill-opacity="1.000000" transform="matrix(-0.0148937 0.999889 -0.99989 -0.0148531 1874.02 716.102)"/></svg>